<svg width="24" height="24" viewBox="0 0 24 24" fill="none" xmlns="http://www.w3.org/2000/svg">
<path d="M17.2659 13.7762C18.2156 12.5957 18.8259 11.1772 19.0311 9.67371C19.4346 6.68438 18.2181 4.31825 15.606 3.01122C14.7996 2.60767 13.9213 2.39071 13.091 2.2032C10.9642 1.72289 9.01689 2.09508 7.30275 3.30901C5.90786 4.29701 5.14146 5.5038 4.95981 6.99851C4.82286 8.13714 4.89707 9.29139 5.17867 10.4029C5.74698 12.6719 6.76381 14.4553 8.28718 15.8546C8.32512 15.8895 8.36357 15.9242 8.40208 15.9589C8.57168 16.1027 8.72795 16.2616 8.86901 16.4336C8.99814 16.6024 9.14691 16.8201 9.15049 17.0077C9.1636 17.7117 9.12274 18.4055 9.07666 19.0498C9.04808 19.4488 9.00232 19.8541 8.95803 20.2461C8.93091 20.4856 8.90387 20.7252 8.88034 20.9654C8.82791 21.4988 9.00909 21.7656 9.50567 21.8864C9.80025 21.9599 10.1025 21.998 10.406 22H10.4339C11.4396 21.9914 12.4613 21.9683 13.4499 21.9459L14.1094 21.9311C14.7496 21.917 15.0075 21.683 15.0612 21.0677C15.1551 19.9898 15.2002 19.1621 15.2071 18.384L15.2081 18.3008C15.2137 17.8391 15.2198 17.3183 14.8191 16.8731L15.5648 15.9291C16.1333 15.2093 16.7003 14.4917 17.2659 13.7762ZM14.1212 16.7417L13.0045 16.657C13.0029 16.6479 13.0027 16.6386 13.0037 16.6295C13.1682 15.9941 13.3345 15.3592 13.5024 14.7249C13.8758 13.306 14.2619 11.8388 14.6125 10.388C14.8831 9.26879 14.8917 8.27693 14.6387 7.35596C14.5142 6.90279 14.2777 6.56808 13.9547 6.388C13.7991 6.30614 13.6287 6.25677 13.4537 6.24288C13.2786 6.229 13.1025 6.25088 12.9361 6.30723C12.8035 6.35155 12.6757 6.40942 12.5548 6.47989L12.5052 6.5065C12.427 6.54827 12.3545 6.59644 12.2777 6.64687L12.2354 6.67466C12.2143 6.64801 12.1937 6.62143 12.1732 6.59503C12.0981 6.49479 12.018 6.39849 11.9331 6.30651C11.4818 5.83315 10.8324 5.78706 10.3168 6.19208C9.96779 6.47582 9.70329 6.85049 9.55221 7.27506C9.02054 8.64462 8.98106 10.0726 9.4349 11.5192C9.6724 12.2763 9.92399 13.0426 10.1677 13.7835C10.2595 14.063 10.3511 14.3426 10.4426 14.6223C10.6414 15.2498 10.7577 15.9006 10.7886 16.5584H9.93678C9.88931 15.9411 9.48081 15.5225 9.08584 15.1171C9.01256 15.0423 8.9393 14.9671 8.86822 14.8905C7.23705 13.1384 6.34192 11.2618 6.13185 9.15353C6.05947 8.42751 6.0059 7.65446 6.10303 6.92044C6.24959 5.81285 6.87904 4.88512 8.02722 4.08407C9.4257 3.10841 10.9809 2.7933 12.6488 3.14749C13.5282 3.3341 14.3825 3.5351 15.1686 3.93914C17.2035 4.98542 18.134 6.80619 17.8593 9.2047C17.6699 10.8585 16.9116 12.3168 15.4004 13.9331C15.0036 14.3578 14.5604 14.8787 14.2821 15.5231C14.1376 15.8579 13.9969 16.2528 14.1212 16.7417ZM14.172 18.7923L14.1254 19.5144H9.91471V18.6643L14.172 18.7923ZM14.0416 20.4376L14.0173 20.9924C12.7575 21.0485 11.3052 21.0959 9.87138 20.986C9.86853 20.9663 9.86563 20.9478 9.86326 20.9302C9.85292 20.8784 9.84763 20.8257 9.84753 20.7729C9.85314 20.6498 9.86505 20.5261 9.8775 20.3953C9.88044 20.365 9.88333 20.3344 9.88621 20.3034L14.0416 20.4376ZM9.8416 17.2775L9.9617 17.281C11.4105 17.3237 12.7801 17.3641 14.1807 17.5106L14.201 17.858C12.7665 17.9378 11.3286 17.9344 9.89451 17.8476L9.8416 17.2775ZM10.9257 13.555C10.8729 13.3867 10.8199 13.2184 10.7696 13.0496C10.4961 12.135 10.233 11.2377 10.0216 10.3159C9.82515 9.45955 9.94021 8.55328 10.3825 7.46376C10.4801 7.24563 10.6197 7.04906 10.7933 6.88531C10.8255 6.8467 10.8654 6.81529 10.9105 6.7932C10.9555 6.7711 11.0047 6.75878 11.0548 6.75704C11.1498 6.76145 11.2482 6.82417 11.3473 6.94335C11.6029 7.25077 11.6084 7.32848 11.4 7.69885C10.9761 8.4525 10.8035 9.17648 10.8723 9.91206C10.8884 10.1435 10.9422 10.3705 11.0315 10.5845C11.0675 10.6922 11.1321 10.788 11.2185 10.8614C11.3049 10.9348 11.4097 10.983 11.5215 11.0008C11.6332 11.0187 11.7477 11.0053 11.8525 10.9623C11.9572 10.9193 12.0482 10.8483 12.1156 10.757C12.2666 10.58 12.3849 10.3774 12.4651 10.1588C12.7686 9.38331 12.8271 8.5329 12.6327 7.72291C12.5714 7.45759 12.7582 7.23472 13.1457 7.11137C13.303 7.06127 13.4266 7.0612 13.5128 7.11082C13.5575 7.14223 13.5952 7.18264 13.6234 7.22948C13.6518 7.27631 13.67 7.32856 13.677 7.38286C13.7747 7.81486 13.8956 8.35247 13.8346 8.83539C13.7288 9.67054 13.5486 10.5123 13.3741 11.3263C13.3416 11.4794 13.3091 11.6324 13.2765 11.7853C13.172 12.2802 13.0577 12.7821 12.9472 13.2674C12.7989 13.9192 12.646 14.5933 12.5132 15.2604C12.4572 15.5877 12.4259 15.9187 12.4197 16.2507C12.4137 16.3839 12.4075 16.5204 12.3984 16.6604L11.4059 16.5991C11.541 15.5168 11.2283 14.5199 10.9257 13.555ZM11.7669 9.34176L11.8244 8.98662C11.8241 9.1073 11.8046 9.22716 11.7669 9.34176Z" fill="#605158"/>
</svg>
