<svg width="24" height="24" viewBox="0 0 24 24" fill="none" xmlns="http://www.w3.org/2000/svg">
<path d="M9.91518 9.44542C9.55268 9.37692 9.18851 9.31537 8.82765 9.23821C8.40488 9.15207 8.00556 8.97606 7.65672 8.72213C7.35326 8.49878 7.1379 8.21231 7.13989 7.83255C7.14336 7.16728 7.18004 6.50201 7.21394 5.83726C7.22677 5.58582 7.27948 5.33706 7.29821 5.08588C7.3152 4.7959 7.3923 4.51262 7.5246 4.25403C7.6569 3.99543 7.84152 3.76719 8.06674 3.58375C8.32616 3.36621 8.6005 3.14251 8.90613 3.00838C10.1703 2.45348 11.4542 1.96872 12.8747 2.00158C13.8239 2.0236 14.7746 2.00046 15.7109 2.19182C16.435 2.33982 17.0933 2.63182 17.6409 3.13964C18.1171 3.58114 18.4002 4.11367 18.419 4.77886C18.4329 5.26578 18.4756 5.75184 18.505 6.22863C19.0044 6.34489 19.4848 6.42805 19.9453 6.57406C20.2543 6.67322 20.5455 6.82156 20.8073 7.01338C21.2036 7.30522 21.335 7.7508 21.3543 8.2288C21.3902 9.11742 21.415 10.0066 21.4592 10.8949C21.5177 12.0645 21.6115 13.2328 21.6516 14.4029C21.6973 15.7366 21.7143 17.0717 21.7141 18.4062C21.7141 18.801 21.6057 19.1952 21.5603 19.5908C21.517 19.97 21.2686 20.1518 20.9471 20.278C20.217 20.5688 19.4555 20.774 18.6782 20.8894C16.8095 21.1502 14.912 21.1251 13.0508 20.8151C12.6444 20.7499 12.2484 20.619 11.8133 20.5097C11.7497 20.5617 11.6573 20.6337 11.5688 20.7101C10.6478 21.5055 9.57053 21.9029 8.36388 21.9819C6.9846 22.0722 5.67529 21.8285 4.45772 21.1627C3.38892 20.5781 2.65793 19.7164 2.40285 18.5068C1.7896 15.5994 3.65137 12.6335 6.52819 11.902C6.75232 11.8451 6.95582 11.708 7.17978 11.6496C7.4613 11.5762 7.76017 11.4835 8.04048 11.5108C8.44799 11.551 8.84682 11.6881 9.24783 11.7898C9.41516 11.8322 9.57851 11.8898 9.77117 11.9489C9.81929 11.1085 9.86594 10.3003 9.91518 9.44542ZM7.93592 20.9856C8.14574 20.9612 8.4889 20.9468 8.82089 20.8784C10.3625 20.5604 11.422 19.7138 11.7818 18.1219C11.9212 17.5134 11.9363 16.883 11.826 16.2685C11.5849 14.9114 10.8918 13.8825 9.65134 13.2548C9.25606 13.0548 8.84275 12.8881 8.42952 12.727C7.98199 12.5557 7.48986 12.5399 7.0323 12.6822C5.38302 13.1574 4.20576 14.1475 3.67367 15.8134C3.5321 16.2348 3.43867 16.6708 3.39517 17.1131C3.2665 18.7025 3.8417 19.7373 5.22375 20.3938C6.04032 20.7816 6.90484 20.957 7.93592 20.9856ZM12.0741 6.22058C13.1201 6.11714 14.1128 6.05427 15.093 5.90791C15.6334 5.82334 16.1596 5.66433 16.6564 5.43538C17.2506 5.164 17.3143 4.66633 16.8942 4.1644C16.8154 4.05641 16.7173 3.96398 16.6047 3.8918C16.2545 3.70444 15.9093 3.47563 15.5322 3.37696C14.1663 3.01724 12.743 2.92962 11.3433 3.1191C10.5739 3.22245 9.83464 3.4328 9.16806 3.84837C8.79931 4.07839 8.46255 4.34717 8.27692 4.75502C8.10681 5.12872 8.19022 5.43391 8.55507 5.6205C8.82868 5.76809 9.1247 5.86968 9.43129 5.92118C10.325 6.0456 11.2247 6.12772 12.0741 6.22058ZM17.4399 6.38669C16.8903 6.54891 16.4025 6.7244 15.9004 6.83495C14.5903 7.12333 13.2577 7.16807 11.922 7.13122C10.6022 7.0948 9.28753 7.01964 8.06362 6.42026V7.96731C8.43142 8.22239 8.7106 8.35001 9.2662 8.41373C10.1338 8.51327 11.0039 8.60604 11.8755 8.65225C13.4168 8.73617 14.9616 8.56703 16.4483 8.15155C16.8138 8.0495 17.1787 7.9282 17.4401 7.73156L17.4399 6.38669ZM20.5401 12.2857C19.837 12.6006 19.2336 12.9214 18.5962 13.1465C17.0403 13.6959 15.4242 13.6988 13.8051 13.5574C13.1596 13.5009 12.5191 13.3867 11.8889 13.3006C12.0753 13.5997 12.2888 13.9015 12.4583 14.2263C12.6278 14.5511 12.7546 14.9009 12.9144 15.2732C13.0837 15.2987 13.2712 15.3416 13.4606 15.353C15.2096 15.4609 16.9644 15.281 18.6552 14.8206C19.208 14.6705 19.734 14.4196 20.2687 14.2058C20.4038 14.1517 20.5414 14.0804 20.5407 13.8937C20.5388 13.3641 20.5401 12.8347 20.5401 12.2857ZM10.9374 12.1091C11.2595 12.2108 11.5908 12.3477 11.9356 12.4188C13.5229 12.7447 15.1544 12.797 16.7594 12.5735C17.9577 12.4104 19.0347 11.9258 20.0116 11.22C20.1359 11.1302 20.2977 11.0033 20.3167 10.8743C20.3618 10.5714 20.3312 10.2574 20.3312 9.94144C20.2916 9.9477 20.2533 9.96039 20.2179 9.97899C19.4123 10.5795 18.4861 10.8662 17.5111 11.036C16.0751 11.2754 14.6139 11.3268 13.1647 11.1891C12.4408 11.1263 11.7215 11.0128 11.0424 10.7289C10.9557 10.6929 10.8666 10.6641 10.7361 10.6163C10.8052 11.1258 10.8659 11.5769 10.9374 12.1091ZM12.3877 19.7874C13.8049 20.286 18.8782 20.2976 20.7324 19.0677C20.6919 18.6626 20.6502 18.247 20.6074 17.8207C18.0887 18.7725 15.5211 18.879 12.9137 18.6035C12.7335 19.0087 12.5606 19.398 12.3877 19.7874ZM20.542 15.34C18.166 16.2013 15.618 16.4794 13.1122 16.1509V17.6153C13.1529 17.6429 13.1647 17.6578 13.1774 17.6586C13.429 17.6744 13.6804 17.6891 13.9317 17.7028C15.6077 17.7941 17.2879 17.6363 18.9177 17.2346C19.4873 17.1007 20.0343 16.8846 20.5417 16.593L20.542 15.34ZM18.5627 7.35066C18.535 7.39341 18.5021 7.42124 18.5057 7.44187C18.6056 7.96383 18.299 8.26877 17.9318 8.5522C17.4484 8.92502 16.882 9.09729 16.3038 9.22978C14.6222 9.60379 12.8921 9.71039 11.1773 9.54565C11.0536 9.53481 10.9282 9.54427 10.8036 9.54427C10.891 9.68253 11.0205 9.78906 11.173 9.84816C11.4628 9.95999 11.7618 10.0464 12.0666 10.1064C13.8709 10.3983 15.7129 10.3632 17.5048 10.0028C18.1755 9.87216 18.8347 9.66686 19.3739 9.22389C19.6103 9.0255 19.8108 8.78794 19.9667 8.52158C20.1292 8.24647 20.0442 8.00719 19.7821 7.83092C19.4156 7.58373 18.9994 7.4198 18.5627 7.35066Z" fill="#605158"/>
</svg>
