<svg width="24" height="24" viewBox="0 0 24 24" fill="none" xmlns="http://www.w3.org/2000/svg">
<path d="M5.97016 8.84101C7.42412 9.52626 8.83845 10.1451 10.2027 10.8564C10.836 11.1864 11.3173 11.1596 11.9406 10.828C14.8498 9.28029 17.788 7.7844 20.7164 6.27151C20.8648 6.18981 21.019 6.11876 21.1779 6.05891C21.3076 6.00244 21.4537 5.99422 21.5891 6.03579C21.7245 6.07736 21.84 6.16588 21.914 6.2849C21.988 6.40392 22.0156 6.54533 21.9915 6.68284C21.9675 6.82033 21.8935 6.94455 21.7833 7.0324C21.6678 7.13327 21.539 7.21851 21.4006 7.28586C19.5493 8.2324 17.6968 9.17658 15.8431 10.1184C14.8131 10.6419 13.7808 11.1606 12.7501 11.6828C12.6425 11.7372 12.539 11.7996 12.3882 11.8835C12.5378 11.9681 12.6467 12.0378 12.7624 12.0938C15.2175 13.2839 17.6729 14.4733 20.1288 15.6625C20.3533 15.7639 20.5674 15.8863 20.7684 16.0278C21.0088 16.2077 21.0738 16.4585 20.9873 16.6728C20.8935 16.905 20.6487 17.0407 20.3342 16.9802C20.0923 16.9312 19.8578 16.8526 19.636 16.7459C18.2426 16.0866 16.8477 15.4298 15.4659 14.7473C14.1116 14.0784 12.7716 13.3814 11.4272 12.6931C11.2281 12.5913 11.0547 12.5244 10.822 12.6451C9.31782 13.4255 7.80586 14.1915 6.29725 14.9637C6.2526 14.9956 6.21129 15.0317 6.17393 15.0716C6.32937 15.1501 6.46347 15.2147 6.59413 15.2843C7.70869 15.877 8.12644 17.012 7.64508 18.1588C7.44602 18.6327 7.14978 19.0444 6.70189 19.3165C5.86222 19.8266 4.9564 20.0963 3.96245 19.9051C2.96398 19.7132 2.10512 18.766 2.00541 17.7754C1.99394 17.6697 2.00074 17.5628 2.0255 17.4593C2.23361 16.6406 2.60938 15.9138 3.33143 15.4241C3.83086 15.0923 4.34729 14.786 4.87867 14.5063C6.49224 13.6374 8.11396 12.7832 9.77802 11.8987C9.67881 11.8269 9.57559 11.7606 9.46884 11.7002C7.7919 10.8815 6.11391 10.0654 4.43486 9.25191C4.2101 9.15095 3.97969 9.06262 3.74475 8.98733C2.89476 8.68929 2.36535 8.09062 2.0815 7.26752C1.98807 6.99151 1.97786 6.69479 2.0521 6.41319C2.1619 5.94765 2.38053 5.5137 2.69063 5.14577C3.00072 4.77785 3.39375 4.48608 3.83851 4.29364C4.28326 4.10119 4.76751 4.01337 5.2528 4.03713C5.7381 4.06089 6.21109 4.19558 6.63421 4.43051C7.75918 5.04626 8.15169 6.26271 7.58997 7.40859C7.34809 7.92483 6.93899 8.34761 6.42673 8.61079C6.29255 8.68127 6.15673 8.74775 5.97016 8.84101ZM4.54452 18.7396C4.72865 18.7266 4.8537 18.7284 4.97467 18.7075C5.58091 18.6024 6.14687 18.4217 6.49297 17.8635C6.84422 17.2969 6.75247 16.7013 6.25654 16.3144C5.25598 15.5339 3.97376 15.8569 3.40761 16.9645C2.97321 17.8143 3.67073 18.8413 4.54452 18.7396ZM4.66712 7.85657C4.7755 7.85423 4.88364 7.84555 4.99096 7.83058C5.57982 7.72442 6.13212 7.54928 6.47731 7.01345C6.8976 6.36104 6.73066 5.68479 6.05033 5.30478C5.71537 5.11024 5.33109 5.01336 4.94228 5.02543C3.8792 5.06992 3.44751 5.60336 3.27867 6.63399C3.16702 7.31594 3.83478 7.87054 4.66712 7.85657Z" fill="#605158"/>
</svg>
