<svg width="24" height="24" viewBox="0 0 24 24" fill="none" xmlns="http://www.w3.org/2000/svg">
<path d="M20.4025 12.2745C20.4025 14.0859 20.408 15.8972 20.3988 17.7086C20.4015 18.1728 20.3731 18.6368 20.3136 19.0971C20.1905 19.9719 19.7328 20.6526 18.9948 21.1439C18.4555 21.5129 17.8308 21.7401 17.1793 21.8041C14.7147 22.0492 12.2324 22.0644 9.76493 21.8494C8.7882 21.7645 7.80125 21.7615 6.85065 21.4919C6.35535 21.3621 5.87167 21.1919 5.40453 20.983C4.50682 20.5591 3.9644 19.8377 3.75356 18.8636C3.6253 18.3211 3.55707 17.7664 3.55006 17.2093C3.56535 14.0974 3.576 10.9854 3.58202 7.87332C3.59225 6.94428 3.66419 6.01699 3.79735 5.09738C3.85028 4.68318 3.95773 4.27763 4.11693 3.89126C4.55189 2.86769 5.32272 2.24875 6.46539 2.18249C7.72399 2.1094 8.98371 2.04373 10.2439 2.01569C11.4109 1.98939 12.5798 1.99835 13.747 2.02631C14.6331 2.04761 15.518 2.12165 16.4033 2.17535C16.6374 2.19088 16.8618 2.27423 17.0487 2.41516C18.177 3.24384 19.2079 4.19614 20.122 5.25402C20.3833 5.5529 20.4557 5.89165 20.4496 6.28324C20.4171 8.28002 20.4045 10.2772 20.385 12.2742L20.4025 12.2745ZM12.6499 21.0408C13.8189 20.9984 15.1239 20.9534 16.429 20.9021C16.7086 20.8911 16.9883 20.8681 17.2649 20.8295C17.6837 20.7702 18.0743 20.5855 18.3848 20.3C18.854 19.8811 19.1678 19.373 19.2238 18.7447C19.2771 18.1451 19.2933 17.5418 19.3106 16.9396C19.3426 15.8274 19.3653 14.7152 19.3877 13.6029C19.3979 13.0931 19.4447 12.5786 19.3938 12.0742C19.2674 10.8234 19.3155 9.5717 19.3112 8.32051C19.3096 7.85695 19.3032 7.3933 19.289 6.93021C19.2821 6.70165 19.0767 6.52388 18.8176 6.51514C18.2117 6.49457 17.6051 6.48961 16.9997 6.46013C16.7211 6.44323 16.4441 6.4063 16.1708 6.34958C15.9264 6.30191 15.6705 6.00077 15.6429 5.75529C15.6198 5.57154 15.6065 5.38672 15.6029 5.20157C15.5996 4.64546 15.6066 4.08934 15.606 3.53322C15.5985 3.44175 15.5612 3.35521 15.4996 3.28681C15.438 3.21842 15.3557 3.17197 15.2651 3.15445C15.126 3.1419 14.9866 3.12596 14.8471 3.12357C13.1214 3.09394 11.3956 3.06007 9.66986 3.04188C8.97069 3.03457 8.27104 3.063 7.57163 3.07571C7.05712 3.08832 6.54899 3.19211 6.07118 3.38232C5.40429 3.64155 5.02566 4.13785 4.96342 4.85159C4.94935 5.083 4.95163 5.31512 4.9703 5.5462C5.05491 7.07608 5.02415 8.60583 4.99378 10.1366C4.94689 12.5015 4.92036 14.867 4.90119 17.2323C4.89256 17.7887 4.92435 18.345 4.99626 18.8969C5.03218 19.1988 5.14524 19.4867 5.32467 19.7329C5.5041 19.9791 5.74393 20.1755 6.02133 20.3035C6.31462 20.4441 6.62321 20.5508 6.94101 20.6213C7.62144 20.7848 8.31639 20.8813 9.01583 20.9095C10.1819 20.9425 11.3471 20.9926 12.6499 21.0408ZM17.4946 5.5365C17.7183 5.52482 17.9021 5.52737 18.08 5.49973C18.1458 5.48948 18.2087 5.41483 18.2557 5.35604C18.2627 5.33533 18.2645 5.31329 18.2612 5.29173C18.2577 5.27016 18.2493 5.24965 18.2364 5.23199C17.9067 4.80128 17.5032 4.43168 17.0445 4.14015C17.0086 4.13469 16.972 4.13693 16.937 4.14659C16.9021 4.15626 16.8695 4.17315 16.8416 4.19625C16.8249 4.55375 16.8164 4.9125 16.8301 5.27C16.8405 5.31314 16.8614 5.35307 16.8908 5.38645C16.9202 5.41984 16.9573 5.44569 16.9989 5.46171C17.1621 5.49845 17.3278 5.52352 17.4946 5.5365Z" fill="#605158"/>
<path d="M11.907 8.88266C13.2603 8.90125 14.6136 8.91743 15.9668 8.94031C16.2934 8.94238 16.6196 8.96157 16.9442 8.99787C17.1261 9.03308 17.3035 9.08867 17.4728 9.16359C17.6128 9.21507 17.7743 9.46795 17.7695 9.60674C17.7649 9.74251 17.5777 9.99085 17.4538 10.0394C17.0118 10.2121 16.5485 10.2463 16.081 10.2532C15.1477 10.2668 14.214 10.3016 13.2812 10.285C12.0687 10.2631 10.8571 10.2014 9.64513 10.1532C8.89914 10.1236 8.15323 10.0914 7.40804 10.0513C7.17219 10.0492 6.94442 9.96567 6.76367 9.81498C6.70795 9.77313 6.66281 9.71895 6.63184 9.65671C6.60086 9.59447 6.58492 9.52583 6.58527 9.45639C6.59326 9.29671 6.73907 9.05464 6.88089 9.0289C7.10648 8.97786 7.33611 8.94652 7.56719 8.93518C9.01395 8.92676 10.4608 8.93091 11.9075 8.93091L11.907 8.88266Z" fill="#605158"/>
<path d="M12.3436 12.3734C11.0568 12.3399 9.79716 12.3145 8.53816 12.2706C8.1193 12.2541 7.70182 12.2125 7.28803 12.1457C7.10852 12.104 6.93879 12.0281 6.78813 11.9224C6.75347 11.8945 6.72527 11.8596 6.70545 11.8199C6.68563 11.7801 6.67464 11.7367 6.67325 11.6924C6.67186 11.6481 6.6801 11.604 6.6974 11.5631C6.7147 11.5223 6.74066 11.4856 6.77351 11.4556C6.88259 11.3712 7.01033 11.3141 7.14613 11.2888C7.46879 11.2421 7.79413 11.2157 8.12015 11.21C10.0332 11.192 11.9467 11.1527 13.8591 11.1837C14.9762 11.2019 16.0916 11.336 17.2073 11.4236C17.2987 11.4415 17.3873 11.4712 17.4709 11.5118C17.595 11.5565 17.7643 11.8504 17.7072 11.9683C17.6502 12.0861 17.5693 12.2225 17.461 12.2777C17.0775 12.4728 16.6505 12.4793 16.2306 12.4777C14.9251 12.4726 13.6167 12.5711 12.3436 12.3734Z" fill="#605158"/>
<path d="M12.0933 13.6098C13.4479 13.6281 14.8026 13.6442 16.1572 13.6666C16.4372 13.6684 16.7168 13.6875 16.9945 13.7239C17.1267 13.7427 17.2519 13.8255 17.375 13.8892C17.5075 13.9577 17.6414 14.246 17.5764 14.3678C17.5139 14.4846 17.4225 14.6176 17.3096 14.6689C17.1392 14.7414 16.9561 14.7798 16.7708 14.7818C15.6033 14.811 14.4354 14.846 13.2678 14.843C12.1002 14.84 10.9313 14.8182 9.76533 14.7601C8.92722 14.7183 8.09214 14.6085 7.25731 14.5153C7.11903 14.498 6.9889 14.4408 6.88316 14.3504C6.79178 14.2522 6.72612 14.1331 6.69197 14.0036C6.66305 13.9172 6.83355 13.6957 6.91928 13.6848C7.19362 13.6388 7.47046 13.609 7.74835 13.5956C9.19655 13.5868 10.6448 13.5916 12.0931 13.5916L12.0933 13.6098Z" fill="#605158"/>
<path d="M10.6031 17.1208C9.63056 17.0857 8.65782 17.0539 7.68548 17.0134C7.35864 17.0128 7.03931 16.9159 6.76788 16.7348C6.6922 16.6825 6.63138 16.6116 6.59132 16.529C6.55126 16.4464 6.53332 16.3549 6.53922 16.2634C6.54242 16.1019 6.71371 15.9042 6.86136 15.8465C7.26172 15.6897 7.67854 15.699 8.09592 15.7169C9.29971 15.7683 10.5045 15.8062 11.7067 15.8824C12.4452 15.9292 13.1801 16.0345 13.9159 16.1188C14.0062 16.1381 14.0946 16.1652 14.1802 16.1998C14.2627 16.2243 14.4313 16.4434 14.3959 16.5262C14.3451 16.6454 14.284 16.7928 14.1821 16.8507C14.0214 16.9389 13.8431 16.9908 13.6599 17.0024C12.9664 17.047 12.2717 17.0739 11.5771 17.0977C11.253 17.1091 10.9281 17.0997 10.6037 17.0997L10.6031 17.1208Z" fill="#605158"/>
<path d="M8.73449 7.54345C8.28172 7.51509 7.76775 7.49842 7.25849 7.44352C7.02838 7.40947 6.80442 7.34257 6.59351 7.24491C6.52945 7.21698 6.47462 7.17164 6.43531 7.1141C6.39601 7.05657 6.37383 6.98919 6.37132 6.91968C6.36006 6.76452 6.52153 6.52435 6.66135 6.48963C6.70544 6.4744 6.75053 6.46219 6.79629 6.45309C7.91188 6.33591 9.02859 6.28426 10.1471 6.41065C10.2394 6.42279 10.3291 6.45027 10.4124 6.49189C10.4966 6.53019 10.5701 6.58821 10.6268 6.66102C10.6834 6.73381 10.7215 6.81919 10.7376 6.90983C10.7649 7.04743 10.5977 7.30399 10.4529 7.35213C10.3247 7.40576 10.1906 7.44426 10.0534 7.46695C9.63476 7.50175 9.2149 7.51716 8.73449 7.54345Z" fill="#605158"/>
</svg>
