<svg width="769" height="769" viewBox="0 0 769 769" fill="none" xmlns="http://www.w3.org/2000/svg">
<path d="M769 384.5C769 596.853 596.853 769 384.5 769C172.147 769 0 596.853 0 384.5C0 172.147 172.147 0 384.5 0C596.853 0 769 172.147 769 384.5Z" fill="#803256"/>
<path d="M738.179 384.5C738.179 580 579.695 738.484 384.195 738.484C188.695 738.484 30.2107 580 30.2107 384.5C30.2107 189 188.695 30.5161 384.195 30.5161C579.695 30.5161 738.179 189 738.179 384.5Z" fill="white"/>
<path d="M636.777 190.707C643.003 198.374 648.605 206.719 653.285 215.77C680.877 263.542 662.356 326.503 629.534 358.649C626.023 362.593 622.407 366.402 618.736 370.184C619.666 364.995 620.684 359.838 621.674 354.736C632.086 308.043 630.597 270.296 612.232 236.991C610.779 234.182 609.242 231.38 607.626 228.579C578.212 233.31 550.808 236.946 526.645 255.325C522.817 258.43 519.186 262.029 515.882 266.16C516.321 260.891 517.508 255.545 519.417 250.34C534.711 210.871 579.186 191.931 613.501 182.207L626.594 178.314L636.777 190.707Z" fill="#803256"/>
<path d="M168.779 184.141C195.445 191.897 225.691 204.399 244.511 228.878C247.8 233.106 250.531 237.44 253.003 241.922C255.464 246.648 258.229 251.42 258.951 256.793C255.559 252.994 250.929 250.617 246.659 247.993C242.52 245.588 238.299 243.325 234.205 241.501C215.503 233.08 196.176 230.571 175.902 228.198C171.501 235.649 167.094 242.953 162.839 250.072C139.72 287.241 127.635 314.691 144.201 361.672C145.651 366.571 147.174 371.484 148.813 376.541C144.644 373.242 140.655 369.911 136.773 366.354C119.706 350.752 102.847 329.032 101.196 299.986C99.7315 271.258 111.227 246.725 123.161 226.378C130.278 214.478 138.27 203.449 146.746 193.007L152.975 182.211L168.779 184.141Z" fill="#803256"/>
<path d="M378.115 179.11C386.27 187.211 392.341 199.248 394.099 211.664C402.712 207.921 410.875 200.97 419.138 192.762L430.448 179.311L436.256 196.81C436.891 199.65 437.681 202.389 438.488 206.087C439.351 209.745 439.612 214.927 438.808 218.84C437.937 223.178 436.713 226.809 435.356 230.184C450.419 234.56 461.539 243.327 472.575 252.347C476.554 255.936 480.625 259.664 483.259 264.319C479.469 260.665 474.755 258.301 470.152 255.93C455.419 248.862 438.087 242.242 424.869 243.14L413.332 242.373L417.615 232.959C418.731 228.733 419.896 224.352 420.52 220.562C410.636 229.305 398.266 236.583 383.33 237.332L369.074 238.28L371.297 224.191C371.329 223.983 371.36 223.776 371.389 223.57C371.964 219.74 371.964 216.038 371.402 212.443C369.931 214.761 368.249 217.008 366.317 219.149C357.923 228.83 344.929 232.128 336.369 234.206C321.292 237.846 309.459 236.104 298.408 242.798C294.138 245.319 290.364 248.94 287.345 253.309C288.998 248.276 291.763 243.427 295.7 239.419C305.538 228.95 321.881 226.584 331.553 221.92C351.838 214.538 357.531 203.045 359.771 184.366L362.686 162.604L378.115 179.11Z" fill="#803256"/>
<path d="M179.856 470.936C177.096 473.617 174.974 476.763 172.958 479.954C164.981 493.486 157.979 509.46 155.609 523.441C160.822 521.018 166.568 519.095 173.234 518.089C178.653 517.408 185.198 517.606 191.577 520.684C197.972 523.698 202.601 529.43 204.976 534.647L209.02 541.812L202.203 547.943C184.912 562.258 165.23 581.382 164.406 606.111C164.467 609.74 165.128 613.471 166.433 617.131C163.826 614.256 161.667 610.817 160.17 607.002C152.415 583.006 163.677 559.1 179.554 540.562C178.582 540.491 177.424 540.517 176.089 540.69C168.777 541.64 159.432 545.95 150.596 550.699L136.399 558.463L134.746 543.49C133.788 512.347 151.526 492.828 169.761 477.037C172.91 474.622 176.245 472.35 179.856 470.936Z" fill="#803256"/>
<path d="M594.555 470.936C597.315 473.617 599.437 476.763 601.453 479.954C609.43 493.486 616.431 509.46 618.802 523.441C613.589 521.018 607.843 519.095 601.177 518.089C595.758 517.408 589.213 517.606 582.834 520.684C576.439 523.698 571.809 529.43 569.435 534.647L565.39 541.812L572.208 547.943C589.498 562.258 609.18 581.382 610.005 606.111C609.944 609.74 609.283 613.471 607.978 617.131C610.585 614.256 612.744 610.817 614.241 607.002C621.996 583.006 610.734 559.1 594.856 540.562C595.829 540.491 596.987 540.517 598.322 540.69C605.634 541.64 614.978 545.95 623.815 550.699L638.012 558.463L639.664 543.49C640.623 512.347 622.885 492.828 604.65 477.037C601.501 474.622 598.166 472.35 594.555 470.936Z" fill="#803256"/>
<path d="M405.149 329.521C414.633 329.919 425.468 331.926 434.503 338.108C444.92 345.237 450.974 356.691 450.331 369.97C449.87 379.482 446.37 388.152 439.902 394.893C433.857 401.194 426.604 404.375 420.769 406.074C409.761 409.28 397.696 408.796 392.44 408.668C381.46 408.398 369.926 406.985 360.319 403.977C355.618 402.505 350.024 400.24 345.077 396.541C340.196 392.892 333.286 385.716 332.51 374.472C331.379 358.111 343.714 348.683 348.252 345.594C354.419 341.395 361.743 338.385 368.034 336.268C380.144 332.191 395.57 329.118 405.149 329.521Z" fill="#803256"/>
<path d="M303.986 386.565C301.113 381.563 290.656 372.259 276.1 376.911C261.544 381.563 248.799 389.972 243.786 394.208C239.172 398.106 232.722 404.668 233.783 408.921C238.081 415.559 251.941 397.965 270.848 395.068C289.756 392.172 295.878 399.751 301.113 396.314C306.349 392.877 306.858 391.566 303.986 386.565Z" fill="#39132B"/>
<path d="M305.64 389.665C305.36 388.768 304.846 387.735 304.127 386.482C301.229 381.437 290.702 372.073 276.051 376.756C261.472 381.415 248.709 389.836 243.681 394.083C241.37 396.036 238.594 398.659 236.528 401.331C235.494 402.667 234.634 404.021 234.099 405.313C233.564 406.604 233.348 407.85 233.625 408.96L233.632 408.986L233.646 409.009C234.206 409.873 234.93 410.353 235.805 410.51C236.672 410.665 237.67 410.502 238.782 410.117C241.002 409.349 243.746 407.669 246.922 405.708C253.293 401.774 261.457 396.671 270.873 395.228C280.299 393.784 286.534 394.951 291.069 396.051C293.332 396.6 295.197 397.139 296.816 397.323C298.446 397.508 299.852 397.336 301.203 396.449C302.513 395.589 303.535 394.857 304.285 394.163C305.035 393.468 305.523 392.802 305.746 392.073C305.969 391.341 305.921 390.566 305.64 389.665ZM305.329 389.762C305.597 390.622 305.633 391.327 305.434 391.978C305.235 392.631 304.792 393.25 304.064 393.924C303.336 394.598 302.332 395.319 301.024 396.177C299.757 397.009 298.434 397.179 296.853 397C295.261 396.819 293.432 396.289 291.146 395.735C286.585 394.629 280.305 393.454 270.824 394.907C261.332 396.361 253.112 401.503 246.751 405.431C243.563 407.4 240.854 409.056 238.676 409.81C237.588 410.187 236.651 410.331 235.863 410.19C235.091 410.051 234.447 409.635 233.935 408.855C233.691 407.845 233.884 406.684 234.4 405.438C234.92 404.182 235.762 402.853 236.785 401.53C238.832 398.884 241.588 396.277 243.891 394.332C248.89 390.108 261.617 381.71 276.15 377.065C290.61 372.444 300.997 381.687 303.844 386.645C304.561 387.893 305.061 388.9 305.329 389.762Z" fill="black"/>
<path d="M475.063 386.564C477.935 381.562 488.392 372.259 502.948 376.91C517.504 381.562 530.249 389.972 535.262 394.208C539.876 398.105 546.327 404.667 545.265 408.921C540.967 415.559 527.108 397.964 508.2 395.068C489.293 392.171 483.171 399.75 477.935 396.314C472.699 392.877 472.191 391.566 475.063 386.564Z" fill="#39132B"/>
<path d="M473.409 389.665C473.688 388.768 474.202 387.735 474.922 386.482C477.819 381.437 488.347 372.073 502.998 376.756C517.576 381.415 530.339 389.836 535.367 394.083C537.678 396.036 540.454 398.659 542.521 401.331C543.554 402.667 544.414 404.021 544.949 405.313C545.484 406.604 545.7 407.85 545.423 408.96L545.416 408.986L545.402 409.009C544.842 409.873 544.118 410.353 543.243 410.51C542.376 410.665 541.378 410.502 540.267 410.117C538.046 409.349 535.303 407.669 532.126 405.708C525.756 401.774 517.591 396.671 508.175 395.228C498.749 393.784 492.514 394.951 487.979 396.051C485.716 396.6 483.851 397.139 482.232 397.323C480.602 397.508 479.196 397.336 477.846 396.449C476.536 395.589 475.513 394.857 474.763 394.163C474.013 393.468 473.526 392.802 473.303 392.073C473.079 391.341 473.128 390.566 473.409 389.665ZM473.719 389.762C473.451 390.622 473.415 391.327 473.614 391.978C473.814 392.631 474.256 393.25 474.984 393.924C475.713 394.598 476.717 395.319 478.025 396.177C479.292 397.009 480.614 397.179 482.196 397C483.788 396.819 485.616 396.289 487.902 395.735C492.463 394.629 498.743 393.454 508.225 394.907C517.716 396.361 525.936 401.503 532.297 405.431C535.486 407.4 538.194 409.056 540.373 409.81C541.46 410.187 542.397 410.331 543.185 410.19C543.957 410.051 544.601 409.635 545.113 408.855C545.357 407.845 545.165 406.684 544.648 405.438C544.128 404.182 543.287 402.853 542.263 401.53C540.216 398.884 537.46 396.277 535.157 394.332C530.158 390.108 517.431 381.71 502.898 377.065C488.438 372.444 478.051 381.687 475.204 386.645C474.487 387.893 473.988 388.9 473.719 389.762Z" fill="black"/>
<path d="M438.541 416.698C440.974 415.818 443.77 415.995 446.239 417.155C448.709 418.315 450.63 420.353 451.506 422.788C452.387 425.224 452.152 427.857 450.925 430.142C449.7 432.458 448.378 434.719 446.961 436.915C434.957 455.718 413.911 471.843 389.847 470.103C367.078 469.182 340.702 453.875 339.131 429.079C338.926 426.572 338.968 424.062 339.234 421.591C339.299 421.008 339.603 420.463 340.062 420.075C340.522 419.687 341.099 419.487 341.683 419.52C342.268 419.554 342.819 419.818 343.231 420.257C343.643 420.695 343.883 421.271 343.881 421.857C343.879 424.062 344.079 426.246 344.484 428.375C348.241 449.116 370.562 458.885 390.185 457.801C407.843 457.245 422.77 443.474 430.712 427.495C431.64 425.648 432.488 423.759 433.252 421.841C434.227 419.438 436.103 417.576 438.541 416.698Z" fill="#803256"/>
</svg>
