<svg width="24" height="24" viewBox="0 0 24 24" fill="none" xmlns="http://www.w3.org/2000/svg">
<path d="M15.5386 21.4537C15.8067 21.5067 16.0783 21.5401 16.3513 21.5535C16.5032 21.5613 16.655 21.5694 16.8069 21.5776C17.4941 21.6146 18.2047 21.6527 18.905 21.6566C18.9415 21.6566 18.9779 21.6566 19.0144 21.6566C19.6658 21.6566 20.344 21.6242 21.0318 21.5599C21.6737 21.4998 21.8456 21.3188 21.8675 20.6796C21.9144 19.3159 21.9485 17.9291 21.9815 16.588L21.9998 15.8493C22.0019 15.7154 21.9877 15.5816 21.9573 15.451C21.8865 15.136 21.6772 14.9386 21.3976 14.9238C21.2559 14.9162 21.1162 14.9585 21.0026 15.043C20.889 15.1276 20.8086 15.2491 20.7756 15.3865C20.7142 15.6111 20.6821 15.8427 20.6798 16.0755C20.6715 16.7499 20.6719 17.4351 20.6721 18.0979C20.6721 18.3285 20.6721 18.5592 20.6721 18.7898C20.6721 19.1271 20.6721 19.4646 20.6721 19.8124V20.2362L20.6306 20.2463C20.598 20.2562 20.5645 20.2629 20.5305 20.2663C20.3559 20.2739 20.1814 20.2824 20.0069 20.2911C19.539 20.3137 19.0552 20.3372 18.5797 20.3443C18.0573 20.3525 17.5259 20.3499 17.0119 20.3474C16.698 20.3459 16.384 20.3444 16.0704 20.3453C15.8946 20.3401 15.7187 20.3527 15.5454 20.383C15.2454 20.4459 15.0538 20.6511 15.0451 20.9184C15.0407 21.0807 15.0979 21.3646 15.5386 21.4537Z" fill="#605158"/>
<path d="M7.43082 20.3561C6.53519 20.3431 5.62461 20.3396 4.74391 20.3363C4.46195 20.3352 4.18 20.334 3.89805 20.3328C3.75549 20.3322 3.61293 20.3323 3.45943 20.3328H3.30916C3.30626 20.3044 3.30345 20.2782 3.30088 20.2536C3.29258 20.1742 3.28578 20.1115 3.28371 20.0513C3.26331 19.4657 3.24323 18.8801 3.2235 18.2945C3.19641 17.4963 3.16894 16.6981 3.14107 15.8998C3.13897 15.7123 3.12306 15.5252 3.09348 15.34C3.08064 15.2428 3.03415 15.1531 2.96204 15.0864C2.88992 15.0197 2.7967 14.9802 2.69847 14.9748C2.47722 14.9572 2.30871 15.0723 2.22578 15.2987C2.19564 15.3856 2.17712 15.4761 2.17071 15.5678L2.16061 15.6812C2.14137 15.8945 2.12155 16.1152 2.11566 16.3342C2.07138 17.9675 2.03429 19.451 2.00237 20.8693C1.99159 21.3455 2.27356 21.6505 2.77585 21.7061C2.93959 21.7212 3.10403 21.7274 3.26844 21.7246C3.31969 21.7246 3.37087 21.7246 3.42204 21.7253L4.15952 21.7343C5.27027 21.7476 6.41875 21.7615 7.54857 21.7673H7.55388C7.73269 21.7627 7.90894 21.7238 8.07293 21.6525C8.19443 21.6109 8.29994 21.5326 8.37482 21.4285C8.4497 21.3245 8.49024 21.1999 8.49083 21.0718C8.49142 20.9437 8.45203 20.8187 8.37812 20.7139C8.30421 20.6092 8.19943 20.5299 8.07831 20.4872C7.87192 20.4058 7.65272 20.3614 7.43082 20.3561Z" fill="#605158"/>
<path d="M2.5967 9.0287H2.61005C2.88885 9.0287 3.11078 8.81878 3.19114 8.47769C3.21017 8.38882 3.21988 8.29822 3.22014 8.20735C3.22155 8.13297 3.22346 8.05857 3.22529 7.98419C3.23117 7.75038 3.23724 7.50867 3.22837 7.27007C3.20327 6.59897 3.17585 5.92796 3.14611 5.25703C3.12537 4.76952 3.10505 4.28188 3.08514 3.79415C3.07926 3.64481 3.08075 3.49382 3.08241 3.33398C3.08291 3.28299 3.08339 3.23107 3.08373 3.17792C3.15446 3.17751 3.22313 3.17654 3.29022 3.17563C3.48095 3.17282 3.66182 3.17039 3.83888 3.1803C5.08977 3.25047 6.14207 3.27122 7.21227 3.14213C7.40561 3.12137 7.59312 3.06358 7.76448 2.97195C7.83624 2.93295 7.89632 2.8757 7.93864 2.80601C7.98096 2.73633 8.004 2.65671 8.0054 2.57526C8.00576 2.49204 7.984 2.41022 7.94233 2.33809C7.90065 2.26597 7.84054 2.20614 7.76813 2.16469C7.62139 2.08397 7.45887 2.03586 7.29171 2.02369C7.11509 2.01096 6.93786 2.0085 6.76096 2.01638C6.70788 2.0177 6.65481 2.01911 6.60182 2.01985C5.8464 2.03087 5.09096 2.0421 4.33554 2.05351L2.60233 2.07938C2.3183 2.08359 2.15452 2.2159 2.10195 2.48434C2.06076 2.68352 2.03814 2.8861 2.03436 3.08943C2.02093 4.45063 2.01047 5.94678 2.00118 7.79784C1.99606 8.01432 2.0076 8.23088 2.03568 8.44561C2.09008 8.80356 2.29965 9.0216 2.5967 9.0287Z" fill="#605158"/>
<path d="M20.61 4.05855C20.5874 4.33401 20.564 4.61899 20.5474 4.90008L20.5247 5.27284C20.4863 5.89996 20.4465 6.54842 20.4379 7.18761C20.4387 7.46803 20.5063 7.74426 20.6351 7.99358C20.6735 8.0784 20.7345 8.15109 20.8116 8.20371C20.8886 8.25634 20.9786 8.28687 21.0719 8.29201H21.0787C21.1728 8.288 21.2641 8.25872 21.3429 8.20727C21.4218 8.15581 21.4852 8.08409 21.5265 7.99968C21.6599 7.75524 21.7409 7.48583 21.7643 7.20851C21.8862 5.73788 21.8092 4.24591 21.7348 2.80338L21.7258 2.62775C21.7092 2.31113 21.5416 2.10711 21.2401 2.03728C21.0138 1.97924 20.7808 1.95115 20.5473 1.95378C19.3571 1.99188 18.1015 2.04129 16.5958 2.10923C16.4178 2.12147 16.2427 2.1607 16.0766 2.22553C15.9844 2.25819 15.9064 2.32161 15.8557 2.40503C15.805 2.48846 15.7849 2.58678 15.7986 2.68332C15.7985 2.78253 15.8373 2.87785 15.9067 2.9489C15.9762 3.01996 16.0708 3.06109 16.1703 3.06351C16.2209 3.06888 16.2714 3.07499 16.3218 3.08111C16.4537 3.09697 16.5899 3.11341 16.7264 3.11738C17.0387 3.12647 17.3561 3.13144 17.6634 3.13623C17.8757 3.13954 18.0878 3.14282 18.3 3.14753C18.8524 3.1596 19.4048 3.17315 19.9777 3.18712L20.655 3.20366C20.655 3.23044 20.6557 3.25557 20.6561 3.27953C20.6574 3.36789 20.6585 3.43762 20.6536 3.50581C20.64 3.68978 20.625 3.87416 20.61 4.05855Z" fill="#605158"/>
</svg>
