<svg width="24" height="24" viewBox="0 0 24 24" fill="none" xmlns="http://www.w3.org/2000/svg">
<path d="M18.9638 9.30723C18.9996 9.32288 19.0329 9.34026 19.0679 9.35259C20.7202 9.92384 21.58 11.1871 21.9436 12.8558C22.057 13.3766 21.9902 13.9142 21.8254 14.4261C21.7597 14.6397 21.65 14.8366 21.5037 15.0031C21.3573 15.1697 21.1777 15.3022 20.9771 15.3917C20.7764 15.4812 20.5594 15.5256 20.3405 15.5219C20.1217 15.5182 19.9061 15.4665 19.7085 15.3703C19.4163 15.2289 19.1634 15.0011 18.896 14.8076C18.7141 14.6758 18.5387 14.5347 18.326 14.3712C18.2724 14.7685 18.249 15.1121 18.1775 15.4453C17.8143 17.135 16.9786 18.5312 15.6427 19.5975C15.3593 19.8135 15.0556 20.0002 14.7361 20.1548C13.9022 20.58 13.0764 20.5159 12.2703 20.0597C11.7975 19.7826 11.378 19.4194 11.0327 18.988C10.9514 18.8897 10.8702 18.792 10.7786 18.6808C10.5133 18.8208 10.2628 18.9692 9.99955 19.0879C9.68889 19.2281 9.36721 19.3428 9.05034 19.4684C8.9801 19.4962 8.89347 19.5055 8.84228 19.554C8.6365 19.7491 8.40022 19.7145 8.16179 19.6674C7.92654 19.6211 7.69187 19.5706 7.45905 19.513C7.03957 19.4169 6.63941 19.2476 6.27603 19.0126C4.48516 17.8174 3.28073 16.1558 2.54706 14.1172C2.13115 12.961 1.94919 11.7303 2.01217 10.4999C2.02238 10.0317 2.15839 9.57529 2.40532 9.18092C2.55474 8.95096 2.73032 8.75465 3.01004 8.68276C3.10675 8.65348 3.19765 8.60687 3.27847 8.5451C5.26241 7.12781 7.40139 5.98032 9.51546 4.78981C10.5668 4.19776 11.6368 3.6392 12.6748 3.02388C13.2509 2.6822 13.8137 2.74623 14.3867 2.93672C14.9457 3.1226 15.4281 3.46149 15.8713 3.85139C17.3644 5.16338 18.3029 6.83497 18.8735 8.74028C18.9159 8.927 18.9461 9.1164 18.9638 9.30723ZM17.2176 13.8688C17.1221 13.7865 17.0669 13.7366 17.0095 13.6897C16.5257 13.2946 16.0365 12.9084 15.6282 12.4241C14.2864 10.8518 13.2766 9.01255 12.6623 7.02183C12.4244 6.25641 12.3165 5.4549 12.3433 4.65215C12.3488 4.49159 12.3619 4.33126 12.3741 4.12807C12.2196 4.20661 12.1064 4.25868 11.9982 4.31999C11.4566 4.62659 10.9146 4.9323 10.376 5.24427C8.49669 6.33281 6.61872 7.42386 4.74213 8.51744C4.26032 8.79985 3.81536 9.14992 3.32676 9.41782C3.21479 9.47183 3.11853 9.55483 3.04754 9.6586C2.97655 9.76237 2.93328 9.88332 2.922 10.0095C2.81017 10.7261 2.91506 11.4298 3.04794 12.1266C3.40897 14.0199 4.30021 15.6277 5.60055 17.0121C6.3408 17.8001 7.18436 18.4129 8.22707 18.7029C8.3442 18.7451 8.46981 18.7564 8.59235 18.736C9.21981 18.5615 9.75292 18.1956 10.2931 17.8699C9.34092 15.3482 9.34986 12.8087 9.8081 10.2382C9.30586 9.86555 9.21131 9.59116 9.3924 9.02383C9.50076 8.6848 9.76282 8.472 10.0983 8.49248C10.8264 8.53648 11.0316 8.6826 11.1717 9.14878C11.216 9.33589 11.2131 9.53144 11.1633 9.71709C11.0882 10.0406 10.771 10.1279 10.4919 10.3171C10.4484 11.0572 10.3789 11.8169 10.3667 12.5774C10.357 13.1832 10.4065 13.7909 10.4492 14.3964C10.5114 15.2607 10.6885 16.1123 10.9757 16.9275C11.0242 17.0662 11.0915 17.1979 11.1467 17.3252L17.2176 13.8688ZM15.2099 10.2394C16.0679 9.49946 17.0658 9.27465 18.1206 9.1986C18.1082 9.13555 18.0924 9.07326 18.0732 9.01204C17.6704 7.98008 17.1689 6.9914 16.576 6.06045C16.0928 5.31553 15.4801 4.66777 14.7682 4.14938C14.5466 3.98588 14.2832 3.87785 14.0317 3.76083C13.9256 3.72115 13.8142 3.69794 13.7014 3.69196C13.6383 3.67882 13.5727 3.69176 13.5189 3.72796C13.4651 3.76416 13.4274 3.82068 13.4142 3.88519C13.3747 3.9942 13.3499 4.10821 13.3403 4.22407C13.3279 4.62402 13.3352 5.02436 13.3621 5.42357C13.4467 6.3458 13.759 7.20673 14.0956 8.05693C14.3896 8.82311 14.7632 9.55478 15.2099 10.2394V10.2394ZM15.5404 10.7258C15.5448 10.7621 15.553 10.7977 15.5649 10.8321C15.6026 10.8991 15.6426 10.9649 15.6853 11.0287C16.1732 11.7522 16.7483 12.4098 17.3969 12.9861C17.5895 13.1722 17.8374 13.2868 18.101 13.3119C18.6223 13.3546 19.1093 13.5946 19.4668 13.9852C19.6133 14.1453 19.7755 14.2895 19.951 14.4155C20.3746 14.7103 20.823 14.5433 20.9486 14.0351C21.0381 13.6734 21.0867 13.303 21.0139 12.9239C20.8395 12.0018 20.3472 11.1745 19.6269 10.5923C19.2731 10.2944 18.8408 10.1106 18.3848 10.0643C17.3735 9.96028 16.4344 10.2016 15.5403 10.7258H15.5404ZM11.6119 18.1906C11.8505 18.4408 12.0255 18.6458 12.2219 18.8262C13.06 19.5955 13.8162 19.6569 14.7714 19.0454C14.7929 19.0317 14.8141 19.0178 14.8347 19.0027C16.1512 18.0398 16.9019 16.7145 17.2559 15.0502L11.6119 18.1906Z" fill="#605158"/>
</svg>
