<svg width="24" height="24" viewBox="0 0 24 24" fill="none" xmlns="http://www.w3.org/2000/svg">
<path d="M6.19256 18.7063C6.40294 18.8116 6.47351 18.9586 6.42832 19.1978C6.39046 19.4432 6.38822 19.6928 6.42171 19.9388C6.47195 20.4018 6.72009 20.9363 7.14604 21.0158C7.43294 21.0716 7.72437 21.1007 8.01664 21.103C8.40943 21.1066 8.79945 21.0367 9.16649 20.8967C9.62051 20.7218 9.83437 20.3249 9.7379 19.835C9.71564 19.7205 9.6916 19.6063 9.66637 19.4854L9.65153 19.4138C9.81137 19.4286 9.96839 19.4457 10.1211 19.4621C10.5248 19.5127 10.9309 19.5424 11.3377 19.5511C11.7465 19.5503 12.1412 19.514 12.5613 19.4727C12.7103 19.4579 12.8636 19.443 13.017 19.4301C13.0141 19.4524 13.0112 19.4743 13.0083 19.4956C12.9924 19.5942 12.9838 19.6938 12.9825 19.7936C12.9885 20.2668 13.1131 20.6322 13.3429 20.8492C13.5258 21.0223 13.7728 21.1036 14.0757 21.0905C14.7323 21.0624 15.2736 21.0169 15.779 20.947C16.1439 20.8967 16.3578 20.6491 16.3652 20.2678C16.3723 19.919 16.3587 19.5643 16.3458 19.2214C16.3417 19.1144 16.3376 19.0073 16.3342 18.9003C16.3305 18.7869 16.321 18.6748 16.3119 18.5663C16.3094 18.5371 16.3069 18.5081 16.3045 18.4794C16.4822 18.4023 16.6577 18.3268 16.831 18.2527C17.2545 18.0711 17.6547 17.8997 18.0564 17.7143C19.0368 17.2621 19.7409 16.5814 20.1497 15.6912C20.169 15.6492 20.193 15.6081 20.2184 15.565C20.2223 15.5586 20.2258 15.552 20.2298 15.5454C20.2634 15.5499 20.2963 15.5544 20.3288 15.5592C20.4378 15.5744 20.5409 15.5888 20.6467 15.5948C20.8188 15.6046 20.9888 15.6011 21.1469 15.5955C21.6933 15.5772 21.9072 15.3746 21.9644 14.8216C22.0704 13.7968 21.9198 12.7775 21.7739 11.7917L21.767 11.7454C21.6901 11.2252 21.4767 11.0445 20.9218 11.0292C20.6856 11.0229 20.4463 11.0246 20.2148 11.0261C20.1283 11.0267 20.042 11.0273 19.9558 11.0275C19.387 9.38078 18.4541 8.41721 17.0279 8.00477C17.1413 7.76445 17.2391 7.51705 17.3206 7.2641C17.4574 6.86813 17.5866 6.49397 17.8459 6.17444C18.0066 5.9763 18.0272 5.77135 17.9011 5.62605C17.844 5.57164 17.776 5.52989 17.7017 5.50353C17.6272 5.47718 17.5481 5.4668 17.4696 5.47311C16.0823 5.60216 15.0875 6.12316 14.4291 7.06589C14.3971 7.11006 14.3629 7.15259 14.3267 7.1933L14.3208 7.20013C14.2462 7.19464 14.1744 7.18811 14.1045 7.1818C13.9365 7.16311 13.7678 7.15399 13.5989 7.1545C13.1213 7.16504 12.5998 7.18715 12.0044 7.22225C9.91296 7.34573 8.12595 7.87913 6.54133 8.85302C5.09978 9.73891 4.24395 10.9247 3.92471 12.4783C3.88835 12.6552 3.8194 12.7603 3.70549 12.8078C3.69874 12.734 3.69355 12.6598 3.68836 12.5873C3.67966 12.3511 3.64686 12.1165 3.59047 11.887C3.54169 11.7081 3.43007 11.5527 3.27607 11.4494C3.12206 11.3461 2.936 11.3017 2.75194 11.3244C2.57646 11.3515 2.41526 11.437 2.29454 11.5672C2.17383 11.6974 2.10067 11.8646 2.08696 12.0417C2.07701 12.2608 2.08962 12.4804 2.12459 12.6969C2.13624 12.7893 2.14833 12.8849 2.15642 12.9779C2.15787 12.9951 2.16515 13.0112 2.17705 13.0237C2.04905 13.1747 1.9042 13.3746 2.08482 13.6149C2.25668 13.8436 2.51233 13.7983 2.71788 13.7623L2.77723 13.7512C2.8596 13.7316 2.94415 13.7225 3.0288 13.7244C3.19206 13.7357 3.35785 13.7573 3.53342 13.78C3.58833 13.7874 3.64472 13.7943 3.70298 13.8016C3.70298 13.8046 3.7026 13.8076 3.70245 13.8105C3.69941 13.8677 3.69637 13.9258 3.69066 13.9837C3.61977 14.602 3.70364 15.2281 3.93473 15.8059C3.97643 15.9085 4.01442 16.016 4.05107 16.1199C4.10799 16.2914 4.1749 16.4594 4.25145 16.6231C4.38158 16.9024 4.54251 17.1662 4.73126 17.4097C5.10986 17.8724 5.56536 18.3922 6.19256 18.7063ZM16.6981 6.46793C16.6107 6.6427 16.5346 6.82293 16.4705 7.00749C16.3483 7.38766 16.2391 7.79506 16.1462 8.21863C16.0827 8.50804 16.199 8.68139 16.5016 8.7484C17.4464 8.95744 18.1722 9.52015 18.7204 10.4682C18.8921 10.7837 19.0291 11.117 19.1292 11.462C19.2536 11.8571 19.3889 12.0359 19.8619 12.051C20.0771 12.058 20.2944 12.0563 20.5244 12.0546C20.6109 12.054 20.6998 12.0534 20.7922 12.0532L20.9741 14.5278C20.8881 14.5473 20.805 14.5649 20.7244 14.5826C20.4934 14.6324 20.2753 14.6791 20.0656 14.7469C19.9147 14.7954 19.7243 14.8997 19.644 15.0468C18.9371 16.335 17.72 16.9359 16.6228 17.3539L16.4802 17.4081C16.203 17.5135 15.9162 17.6224 15.6372 17.7372C15.364 17.8495 15.3466 18.1405 15.3383 18.2804C15.3172 18.6324 15.3086 18.9903 15.3001 19.3365C15.297 19.4654 15.2939 19.5944 15.2901 19.7233C15.2887 19.7726 15.2889 19.8219 15.2893 19.8856V19.9327L14.1822 20.0483C14.168 19.9564 14.1525 19.8665 14.1377 19.7781C14.0944 19.5512 14.0645 19.322 14.0481 19.0916C14.0326 18.7824 13.9332 18.56 13.7527 18.4305C13.5598 18.2921 13.28 18.2696 12.9425 18.3651C12.2661 18.5563 11.6015 18.5607 10.9787 18.549C10.7921 18.5456 10.6009 18.5233 10.4159 18.5017C10.2818 18.486 10.1429 18.4699 10.0051 18.4606C9.83497 18.4476 9.66392 18.4547 9.49554 18.482C9.07255 18.5546 8.85571 18.7738 8.76963 19.2145C8.74203 19.3555 8.72644 19.4996 8.71271 19.6347C8.7041 19.7205 8.69964 19.8061 8.69445 19.9053C8.69304 19.9328 8.69155 19.9614 8.68984 19.9915L7.50639 20.0731C7.49555 19.9625 7.48339 19.854 7.47144 19.747C7.43405 19.4628 7.41273 19.1768 7.40756 18.8902C7.40808 18.6196 7.36814 18.3367 7.07428 18.1028L6.91548 17.9766C6.55102 17.6988 6.2028 17.4005 5.87251 17.0829C5.46979 16.6935 5.15594 16.2218 4.95243 15.6999C4.74893 15.178 4.66057 14.6184 4.69341 14.0592C4.73512 13.0924 4.92747 12.2621 5.28151 11.5206C5.56461 10.9276 6.01846 10.4117 6.66918 9.9435C8.21967 8.8272 10.0593 8.24623 12.293 8.16727C12.5629 8.15777 12.8378 8.15317 13.1038 8.1488C13.5075 8.14212 13.9248 8.13522 14.3352 8.1108C14.5292 8.09923 14.7141 7.88077 14.7661 7.81361C15.2729 7.16348 15.7405 6.76647 16.2822 6.52663C16.4074 6.47127 16.5367 6.42164 16.6865 6.36413L16.7595 6.33606C16.7388 6.38162 16.7181 6.42541 16.6981 6.46793Z" fill="#605158"/>
<path d="M10.1458 2.90461C9.44774 2.96546 8.85984 3.37776 8.49013 4.06545C8.24058 4.52983 8.16689 4.97885 8.27115 5.40005C8.47989 6.24326 9.15176 6.67264 10.2683 6.67643C10.2967 6.67791 10.3249 6.67856 10.353 6.67856C11.0276 6.67856 11.6338 6.2587 11.9871 5.54074C12.3057 4.89321 12.3193 4.35974 12.0285 3.90974C11.5671 3.19587 10.8992 2.83916 10.1458 2.90461ZM11.0037 5.06471C10.7825 5.47396 10.4742 5.70847 10.1796 5.68561H10.1747C9.75734 5.68361 9.45064 5.57058 9.28757 5.35909C9.14813 5.17809 9.11555 4.92372 9.19332 4.62362C9.23234 4.45984 9.29672 4.30315 9.38415 4.15924C9.44863 4.0551 9.53857 3.96911 9.64558 3.90938C9.75251 3.84966 9.87295 3.81816 9.99539 3.81787C10.1051 3.81833 10.2133 3.8423 10.3128 3.88815C10.503 3.97025 10.682 4.0763 10.8453 4.20369C11.1738 4.47002 11.212 4.67927 11.0037 5.06471Z" fill="#605158"/>
<path d="M11.703 8.78676C10.345 8.89258 9.17089 9.20906 8.11247 9.75441C7.91925 9.8598 7.73796 9.98572 7.57173 10.13C7.3707 10.2978 7.32483 10.529 7.45751 10.7053C7.48632 10.746 7.52466 10.7789 7.56917 10.8013C7.61368 10.8236 7.66299 10.8347 7.71279 10.8335C7.81386 10.8289 7.91257 10.8013 8.00139 10.7529C8.84297 10.3366 9.80689 10.053 10.9482 9.88607C11.2838 9.83694 11.6241 9.77571 11.9593 9.70417C12.219 9.64896 12.3653 9.48608 12.3723 9.24579V9.24342C12.3739 9.18395 12.3629 9.12483 12.34 9.06991C12.3171 9.015 12.2828 8.96553 12.2395 8.92478C12.122 8.81629 11.9365 8.76799 11.703 8.78676Z" fill="#605158"/>
<path d="M15.5176 10.683C15.5111 10.7815 15.5245 10.8802 15.557 10.9734C15.5895 11.0666 15.6405 11.1523 15.7068 11.2254C15.7732 11.2984 15.8536 11.3573 15.9433 11.3986C16.0329 11.4399 16.13 11.4627 16.2286 11.4657C16.2398 11.4662 16.2508 11.4665 16.262 11.4665C16.454 11.4659 16.6383 11.3906 16.7756 11.2565C16.8504 11.1845 16.91 11.0982 16.9506 11.0027C16.9912 10.9072 17.0121 10.8045 17.0119 10.7007C17.0098 10.2969 16.714 9.97576 16.3384 9.96945C15.8657 9.96463 15.5346 10.2483 15.5176 10.683Z" fill="#605158"/>
</svg>
