<svg width="1656" height="450" viewBox="0 0 1656 450" fill="none" xmlns="http://www.w3.org/2000/svg">
<path d="M1616.67 404.683L7.16895 446.683L64.6689 386.183L7.16895 342.683L64.6689 288.683L24.1689 246.683L76.1689 201.683L24.1689 144.183L76.1689 90.6826L37.6689 43.6826L1648.17 3.18262L1596.17 57.1826L1636.67 107.683L1582.67 154.683L1628.17 201.683L1569.67 246.683L1616.67 300.683L1569.67 351.183L1616.67 404.683Z" fill="#FFF4F7"/>
<path d="M1600.16 57.3633L1640.81 108.054L1587.02 154.868L1632.66 202.011L1574.02 247.117L1620.71 300.75L1573.71 351.24L1623.15 407.515L0 449.871L60.1807 386.549L2.52344 342.93L60.3994 288.576L19.8115 246.486L71.8867 201.42L20.0576 144.108L72.1504 90.5117L31.4609 40.8379L1655.4 0L1600.16 57.3633ZM43.877 46.5273L80.1865 90.8535L28.2803 144.256L80.4512 201.944L28.5254 246.879L68.9385 288.788L11.8135 342.435L69.1562 385.815L14.3369 443.494L1610.19 401.851L1565.62 351.125L1612.63 300.614L1565.31 246.248L1623.67 201.354L1578.31 154.496L1632.53 107.311L1592.18 57.002L1640.94 6.36523L43.877 46.5273Z" fill="#803256"/>
<path d="M522.169 320.183C522.169 350.006 497.992 374.183 468.169 374.183C438.346 374.183 414.169 350.006 414.169 320.183C414.169 290.36 438.346 266.183 468.169 266.183C497.992 266.183 522.169 290.36 522.169 320.183Z" fill="#803256"/>
<path d="M670.169 94.183C670.169 112.408 655.394 127.183 637.169 127.183C618.944 127.183 604.169 112.408 604.169 94.183C604.169 75.9576 618.944 61.183 637.169 61.183C655.394 61.183 670.169 75.9576 670.169 94.183Z" fill="#803256"/>
<path d="M1018.17 354.183C1018.17 372.408 1003.39 387.183 985.169 387.183C966.944 387.183 952.169 372.408 952.169 354.183C952.169 335.958 966.944 321.183 985.169 321.183C1003.39 321.183 1018.17 335.958 1018.17 354.183Z" fill="#803256"/>
<path d="M1178.17 124.183C1178.17 154.006 1153.99 178.183 1124.17 178.183C1094.35 178.183 1070.17 154.006 1070.17 124.183C1070.17 94.3597 1094.35 70.183 1124.17 70.183C1153.99 70.183 1178.17 94.3597 1178.17 124.183Z" fill="#803256"/>
<path d="M329.051 39.7744C333.158 40.5963 337.245 41.8083 341.222 43.5003C363.155 51.6499 374.127 77.2306 372.094 96.6095C372.013 98.8478 371.862 101.07 371.685 103.299C370.586 101.351 369.524 99.3913 368.468 97.4561C359.245 79.3834 348.552 67.4518 333.545 61.5351C332.311 61.0098 331.051 60.51 329.766 60.0317C321.434 69.5308 313.462 78.1289 310.536 90.668C310.125 92.7176 309.912 94.8755 309.949 97.1186C308.668 95.2783 307.61 93.2103 306.826 90.9933C301.152 73.9613 310.563 55.7466 319.147 43.2906L322.372 38.4785L329.051 39.7744Z" fill="#803256"/>
<path d="M174.352 164.171C185.163 159.495 198.426 155.402 211.195 158.312C213.413 158.805 215.477 159.482 217.497 160.279C219.579 161.157 221.773 161.969 223.461 163.529C221.326 163.205 219.17 163.681 217.065 163.978C215.062 164.311 213.071 164.713 211.24 165.224C202.852 167.529 195.859 171.935 188.592 176.642C189.169 180.266 189.704 183.845 190.238 187.321C192.734 205.718 196.208 217.955 214.324 228.827C216.123 230.036 217.949 231.229 219.852 232.439C217.598 232.488 215.393 232.478 213.163 232.365C203.367 231.882 191.986 229.344 183.592 220.299C175.346 211.308 172.469 200.183 170.867 190.308C169.975 184.495 169.604 178.73 169.55 173.026L168.666 167.814L174.352 164.171Z" fill="#803256"/>
<path d="M336.3 208.398C318.142 223.424 299.104 211.262 297.906 198.877C297.336 192.988 308.694 190.135 314.926 184.793C321.801 178.9 327.574 167.825 332.997 169.839C343.337 173.679 353.515 194.153 336.3 208.398Z" fill="#EEC6D2"/>
<path d="M325.77 169.457C327.424 168.065 330.346 165.976 333.967 167.228C351.466 174.435 353.365 200.706 338.48 211.033C334.916 214.009 330.777 216.449 326.112 217.767C315.737 220.97 303.289 216.163 298.496 206.602C297.295 204.247 296.581 201.62 296.618 199.001C296.205 195.696 298.709 193.363 300.59 191.884C305.064 188.516 310.009 186.415 313.545 183.18C316.301 180.63 318.677 177.41 321.302 174.219C322.631 172.618 323.987 170.994 325.77 169.457ZM302.434 194.431C300.606 195.636 299.082 197.1 299.194 198.752C299.687 200.845 300.705 202.754 302.008 204.409C307.361 211.089 316.484 213.438 324.237 211.125C327.782 210.125 331.107 208.231 334.12 205.763C345.965 197.763 344.04 178.213 332.028 172.449C331.329 171.558 327.486 174.625 325.05 177.474C322.349 180.403 319.7 183.634 316.308 186.404C311.734 190.01 306.593 191.722 302.434 194.431Z" fill="#803256"/>
<path d="M241.394 105.925C246.25 106.367 251.488 108.659 255.42 112.24C257.222 108.689 258.01 104.21 258.491 99.2938L258.549 91.8405L265.178 95.9881C266.154 96.7444 267.153 97.4257 268.416 98.4158C269.687 99.3777 271.174 101.001 271.969 102.496C272.858 104.15 273.439 105.667 273.909 107.137C280.014 104.494 286.018 104.352 292.063 104.315C294.334 104.412 296.672 104.529 298.791 105.338C296.565 105.169 294.385 105.671 292.24 106.141C285.515 107.815 278.061 110.339 273.985 114.206L270.008 117.075L268.862 112.84C268.084 111.158 267.28 109.411 266.459 108.004C265.593 113.533 263.52 119.256 258.841 123.54L254.44 127.704L251.356 122.5C251.311 122.423 251.265 122.347 251.218 122.272C250.37 120.865 249.369 119.655 248.214 118.632C248.36 119.788 248.418 120.976 248.366 122.198C248.241 127.632 244.886 132.223 242.651 135.216C238.709 140.482 234.371 143.113 232.57 148.288C231.857 150.266 231.603 152.47 231.797 154.714C230.977 152.622 230.569 150.29 230.772 147.916C231.156 141.835 235.856 136.643 237.755 132.504C242.388 124.607 241.14 119.312 236.822 112.603L231.89 104.704L241.394 105.925Z" fill="#803256"/>
<path d="M255.52 254.891C255.343 256.513 255.5 258.115 255.705 259.703C256.757 266.282 258.788 273.394 261.794 278.604C262.842 276.402 264.2 274.22 266.106 272.089C267.692 270.402 269.885 268.696 272.801 267.977C275.706 267.233 278.769 267.854 280.955 268.917L284.214 270.165L283.644 274.011C281.865 283.364 280.605 294.935 287.022 303.238C288.023 304.407 289.248 305.448 290.664 306.291C289.035 306.057 287.399 305.517 285.879 304.675C276.856 298.931 274.072 288.074 274.248 277.724C273.911 277.963 273.539 278.285 273.15 278.702C271.018 280.99 269.13 284.925 267.526 288.866L264.986 295.242L260.398 290.796C251.664 280.879 252.182 269.705 253.871 259.614C254.247 257.974 254.722 256.33 255.52 254.891Z" fill="#803256"/>
<path d="M391.027 142.759C392.654 142.889 394.198 143.343 395.719 143.841C401.985 146.106 408.592 149.432 413.147 153.36C410.788 153.977 408.39 154.903 405.94 156.377C403.986 157.619 401.9 159.454 400.648 162.184C399.374 164.898 399.411 168.023 400.045 170.37L400.661 173.805L404.547 173.965C414.067 173.967 425.67 174.894 432.626 182.752C433.587 183.954 434.38 185.352 434.943 186.901C435.017 185.256 434.793 183.549 434.25 181.898C430.296 171.959 420.152 167.193 409.952 165.429C410.25 165.143 410.636 164.838 411.119 164.534C413.765 162.867 417.984 161.749 422.155 160.911L428.893 159.609L425.385 154.27C417.277 143.835 406.203 142.253 395.975 142.023C394.293 142.086 392.589 142.245 391.027 142.759Z" fill="#803256"/>
<path d="M290.899 147.764C294.106 145.33 298.189 143.056 302.813 142.633C308.144 142.146 313.22 144.252 316.6 148.765C319.021 151.998 320.222 155.777 319.931 159.728C319.66 163.422 318.15 166.423 316.702 168.555C313.972 172.579 309.899 175.684 308.147 177.063C304.486 179.944 300.335 182.601 296.383 184.215C294.449 185.006 292.008 185.778 289.392 185.907C286.81 186.034 282.612 185.558 279.318 182.094C274.525 177.053 276.006 170.638 276.653 168.401C277.533 165.362 279.113 162.398 280.596 160.005C283.45 155.398 287.66 150.223 290.899 147.764Z" fill="#803256"/>
<path d="M338.43 123.845C343.364 124.653 351.368 128.273 356.653 135.541C363.123 144.468 363.777 157.852 353.365 162.898C343.625 167.619 330.493 156.576 327.347 151.147C324.293 145.876 322.887 139.429 324.152 133.995C325.417 128.562 333.496 123.037 338.43 123.845Z" fill="#39132B"/>
<path d="M329.875 126.523C332.676 124.56 335.948 123.369 338.441 123.777C343.313 124.575 351.162 128.103 356.458 135.162L356.709 135.501C359.952 139.976 361.739 145.569 361.409 150.68C361.078 155.793 358.627 160.425 353.396 162.96C348.494 165.336 342.749 163.742 337.849 160.889C332.947 158.035 328.868 153.909 327.288 151.182C324.227 145.899 322.815 139.434 324.085 133.98C324.722 131.24 327.074 128.488 329.875 126.523ZM327.407 151.112C328.973 153.814 333.032 157.925 337.918 160.769C342.805 163.615 348.496 165.181 353.335 162.836C358.515 160.326 360.943 155.743 361.271 150.671C361.599 145.596 359.824 140.034 356.597 135.582L356.348 135.245C351.076 128.218 343.26 124.706 338.419 123.913C335.978 123.514 332.743 124.681 329.955 126.636C327.167 128.591 324.846 131.318 324.219 134.011C322.959 139.423 324.359 145.852 327.407 151.112Z" fill="black"/>
<path d="M333.887 133.318C333.254 133.023 332.562 133.595 332.734 134.272L334.371 140.719C334.417 140.9 334.4 141.092 334.323 141.263L331.602 147.295C331.319 147.923 331.881 148.602 332.551 148.441L338.986 146.898C339.168 146.854 339.36 146.873 339.529 146.953L345.555 149.767C346.188 150.062 346.88 149.49 346.708 148.812L345.072 142.366C345.025 142.185 345.042 141.993 345.119 141.822L347.84 135.79C348.123 135.162 347.561 134.483 346.892 134.644L340.457 136.187C340.274 136.231 340.083 136.212 339.913 136.132L333.887 133.318Z" fill="#FFF4F7"/>
<path d="M351.652 141.375C351.019 141.08 350.326 141.653 350.498 142.33L350.913 143.963C350.959 144.144 350.942 144.336 350.865 144.507L350.165 146.061C349.882 146.688 350.444 147.367 351.113 147.207L352.77 146.809C352.952 146.765 353.144 146.785 353.314 146.864L354.841 147.577C355.474 147.873 356.166 147.3 355.994 146.623L355.579 144.99C355.533 144.808 355.55 144.616 355.627 144.445L356.327 142.892C356.61 142.264 356.049 141.585 355.379 141.746L353.722 142.143C353.54 142.187 353.348 142.168 353.178 142.088L351.652 141.375Z" fill="#FFF4F7"/>
<path d="M254.141 188.104C247.732 193.612 250.253 205.746 253.999 213.75C258.61 223.563 270.237 229.257 279.114 223.92C287.808 217.778 284.541 201.224 281.362 195.936C278.275 190.801 271.314 186.091 268.114 185.034C264.913 183.977 260.55 182.596 254.141 188.104Z" fill="#39132B"/>
<path d="M262.324 184.038C260.015 184.251 257.309 185.291 254.096 188.052C250.867 190.826 249.895 195.264 250.193 199.996C250.482 204.581 251.964 209.457 253.762 213.401L253.937 213.779L254.047 214.01C256.377 218.822 260.393 222.621 264.929 224.58C269.538 226.57 274.688 226.662 279.15 223.98L279.152 223.979L279.154 223.977C283.529 220.885 284.887 215.181 284.759 209.606C284.632 204.03 283.018 198.557 281.421 195.901C279.871 193.323 277.352 190.856 274.822 188.902C272.293 186.948 269.746 185.501 268.135 184.969C266.535 184.44 264.632 183.826 262.324 184.038ZM281.303 195.972C282.885 198.603 284.494 204.051 284.621 209.61C284.748 215.169 283.392 220.812 279.075 223.864C274.659 226.516 269.559 226.428 264.984 224.453C260.407 222.477 256.36 218.612 254.062 213.721L253.887 213.343C252.095 209.411 250.618 204.551 250.331 199.987C250.034 195.274 251.005 190.89 254.186 188.157C257.382 185.41 260.062 184.386 262.337 184.176C264.613 183.966 266.492 184.571 268.092 185.1C269.682 185.625 272.215 187.062 274.738 189.011C277.261 190.96 279.765 193.415 281.303 195.972Z" fill="black"/>
<path d="M260.26 193.887C260.088 193.21 260.78 192.637 261.413 192.932L267.278 195.671C267.448 195.751 267.639 195.77 267.821 195.726L274.086 194.224C274.755 194.063 275.317 194.742 275.034 195.37L272.386 201.242C272.309 201.413 272.292 201.605 272.338 201.786L273.931 208.06C274.103 208.737 273.411 209.31 272.778 209.014L266.913 206.275C266.743 206.196 266.551 206.177 266.369 206.22L260.105 207.723C259.436 207.884 258.874 207.205 259.157 206.577L261.805 200.705C261.882 200.534 261.899 200.342 261.853 200.161L260.26 193.887Z" fill="#FFF4F7"/>
<path d="M264.725 213.308C264.553 212.631 265.245 212.058 265.878 212.354L267.405 213.067C267.574 213.146 267.766 213.165 267.948 213.122L269.605 212.724C270.275 212.564 270.837 213.242 270.554 213.87L269.853 215.423C269.776 215.594 269.759 215.786 269.805 215.968L270.22 217.601C270.392 218.278 269.7 218.851 269.067 218.555L267.54 217.842C267.37 217.763 267.179 217.743 266.996 217.787L265.339 218.185C264.67 218.345 264.108 217.666 264.391 217.039L265.092 215.485C265.169 215.315 265.186 215.123 265.139 214.941L264.725 213.308Z" fill="#FFF4F7"/>
<path d="M1521.45 235.757C1521.87 239.528 1522.03 243.197 1521.86 247.12C1521.47 259.363 1516.63 273.335 1506.82 282.32C1497.11 291.411 1485.51 294.65 1474.76 297.044C1472.34 297.586 1469.91 298.097 1467.47 298.659C1469.14 296.787 1470.91 294.988 1472.69 293.237C1490.36 277.645 1499.02 264.409 1499.06 246.098C1499.09 245.426 1499.12 244.757 1499.13 244.088C1485.5 238.365 1473.12 232.591 1458.05 233.854C1455.73 234.126 1453.35 234.636 1450.96 235.432C1452.45 233.406 1454.26 231.53 1456.31 229.883C1473.05 216.985 1496.99 220.81 1513.89 225.967L1520.53 227.897L1521.45 235.757Z" fill="#803256"/>
<path d="M1292.92 139.334C1305.8 144.036 1320.29 151.194 1328.76 163.876C1330.24 166.068 1331.44 168.293 1332.51 170.583C1333.57 172.992 1334.77 175.435 1334.95 178.105C1333.4 176.122 1331.2 174.798 1329.18 173.364C1327.22 172.042 1325.22 170.788 1323.26 169.754C1314.33 164.988 1304.89 163.113 1294.98 161.275C1292.56 164.8 1290.15 168.253 1287.82 171.619C1275.2 189.168 1268.34 202.292 1274.95 225.985C1275.5 228.447 1276.09 230.918 1276.73 233.463C1274.79 231.7 1272.93 229.927 1271.14 228.047C1263.24 219.796 1255.65 208.539 1255.8 194.174C1256.03 179.972 1262.5 168.266 1269.05 158.636C1272.95 153.008 1277.25 147.838 1281.78 142.974L1285.2 137.861L1292.92 139.334Z" fill="#803256"/>
<path d="M1391.67 288.025C1392.94 288.121 1394.16 288.767 1395.04 289.789C1395.92 290.811 1396.37 292.117 1396.28 293.391C1396.18 294.667 1395.54 295.806 1394.53 296.586C1393.51 297.382 1392.45 298.133 1391.37 298.836C1382.16 304.877 1369.42 307.882 1358.93 302.231C1348.86 297.21 1340.08 284.979 1344.39 273.492C1344.8 272.322 1345.33 271.2 1345.95 270.141C1346.09 269.891 1346.34 269.707 1346.63 269.625C1346.91 269.544 1347.21 269.57 1347.47 269.703C1347.73 269.837 1347.92 270.067 1348.02 270.348C1348.11 270.629 1348.11 270.937 1347.99 271.201C1347.54 272.193 1347.19 273.217 1346.94 274.258C1344.44 284.361 1352.51 293.276 1361.57 296.758C1369.64 300.079 1379.15 296.896 1385.96 291.305C1386.75 290.661 1387.51 289.982 1388.24 289.272C1389.17 288.387 1390.39 287.928 1391.67 288.025Z" fill="#803256"/>
<path d="M1411.25 168.162C1413.29 173.46 1413.59 180.11 1411.87 186.058C1416.5 186.115 1421.59 184.635 1426.97 182.61L1434.78 178.839L1433.86 187.896C1433.57 189.304 1433.37 190.697 1432.99 192.526C1432.64 194.348 1431.71 196.735 1430.55 198.335C1429.28 200.113 1428 201.501 1426.7 202.747C1432.6 207.765 1435.84 213.963 1438.99 220.259C1440.05 222.68 1441.13 225.183 1441.38 227.812C1440.41 225.4 1438.76 223.381 1437.17 221.382C1431.96 215.218 1425.49 208.73 1419.36 206.461L1414.32 203.782L1418.15 200.408C1419.51 198.73 1420.92 196.992 1421.97 195.411C1415.75 197.35 1408.7 198.126 1401.82 195.442L1395.21 192.985L1399.06 187.088C1399.12 187.001 1399.17 186.914 1399.23 186.827C1400.26 185.218 1401.01 183.551 1401.49 181.818C1400.35 182.565 1399.14 183.236 1397.84 183.81C1392.1 186.473 1385.58 185.329 1381.3 184.534C1373.78 183.124 1368.8 179.945 1362.47 180.725C1360.03 180.997 1357.6 181.864 1355.36 183.221C1357.12 181.289 1359.35 179.664 1361.93 178.655C1368.48 175.929 1376.32 178.17 1381.62 178.026C1392.25 178.804 1397.14 174.779 1401.93 166.818L1407.64 157.606L1411.25 168.162Z" fill="#803256"/>
<path d="M1262.91 259.509C1261.13 260.158 1259.54 261.146 1257.98 262.176C1251.65 266.657 1245.27 272.436 1241.37 278.254C1244.21 278.217 1247.19 278.513 1250.39 279.409C1252.97 280.198 1255.88 281.611 1258.13 284.288C1260.4 286.939 1261.33 290.458 1261.34 293.288L1261.71 297.333L1257.4 298.716C1246.72 301.666 1233.98 306.299 1228.61 317.271C1227.9 318.918 1227.45 320.732 1227.29 322.645C1226.7 320.822 1226.42 318.836 1226.52 316.815C1227.88 304.438 1237.79 295.948 1248.69 290.81C1248.27 290.581 1247.74 290.359 1247.11 290.167C1243.62 289.115 1238.54 289.166 1233.6 289.518L1225.63 290.143L1227.92 283.065C1233.79 268.843 1245.72 263.639 1257.13 260.215C1259.04 259.764 1261 259.416 1262.91 259.509Z" fill="#803256"/>
<path d="M1449.71 343.399C1450.41 345.165 1450.73 347.012 1450.99 348.857C1451.85 356.565 1451.77 365.177 1450.01 371.954C1448.15 369.808 1445.95 367.779 1443.15 365.978C1440.85 364.575 1437.86 363.34 1434.36 363.436C1430.87 363.5 1427.63 365.146 1425.5 367.015L1422.23 369.424L1424.06 373.565C1428.96 383.511 1433.95 396.106 1429.32 407.412C1428.56 409.034 1427.51 410.581 1426.18 411.965C1427.94 411.198 1429.6 410.086 1431.05 408.67C1439.4 399.43 1439.16 386.384 1435.76 374.822C1436.21 374.987 1436.73 375.233 1437.29 375.581C1440.4 377.488 1443.73 381.32 1446.75 385.246L1451.58 391.615L1455.35 385.205C1462.08 371.371 1458.04 358.991 1453.02 348.189C1452.09 346.465 1451.05 344.767 1449.71 343.399Z" fill="#803256"/>
<path d="M1393 241.385C1397.19 243.483 1401.67 246.579 1404.49 251.192C1407.74 256.51 1408.15 262.894 1405.17 268.745C1403.04 272.936 1399.71 276.133 1395.43 277.861C1391.43 279.477 1387.52 279.442 1384.55 279.027C1378.94 278.244 1373.61 275.586 1371.27 274.465C1366.37 272.122 1361.46 269.152 1357.75 265.854C1355.93 264.24 1353.86 262.088 1352.38 259.421C1350.92 256.79 1349.26 252.16 1351.19 246.939C1353.99 239.34 1361.45 237.589 1364.12 237.115C1367.75 236.472 1371.66 236.598 1374.92 236.916C1381.2 237.53 1388.77 239.266 1393 241.385Z" fill="#803256"/>
<path d="M1439.71 280.838C1441.16 285.621 1441.45 294.4 1437.26 302.35C1432.11 312.096 1420.03 317.325 1411.27 311.481C1402.73 304.827 1406.84 288.171 1410.32 282.951C1413.7 277.884 1419.44 272.916 1424.3 272.511C1429.16 272.106 1438.26 276.055 1439.71 280.838Z" fill="#39132B"/>
<path d="M1433.32 274.657C1434.86 275.427 1436.29 276.361 1437.43 277.403C1438.57 278.445 1439.42 279.6 1439.79 280.815C1441.22 285.54 1441.52 294.143 1437.53 302.014L1437.34 302.388L1437.21 302.616C1434.62 307.395 1430.35 311.063 1425.65 312.837C1420.87 314.639 1415.63 314.487 1411.23 311.548L1411.22 311.545C1406.92 308.193 1405.82 302.33 1406.21 296.673C1406.61 291.014 1408.51 285.531 1410.26 282.907C1411.95 280.366 1414.24 277.851 1416.71 275.92C1419.18 273.989 1421.84 272.636 1424.29 272.432C1426.74 272.227 1430.25 273.119 1433.32 274.657ZM1410.39 282.996C1408.66 285.592 1406.77 291.046 1406.37 296.684C1405.98 302.322 1407.08 308.113 1411.32 311.415C1415.67 314.319 1420.85 314.474 1425.59 312.687C1430.33 310.899 1434.63 307.169 1437.19 302.313L1437.39 301.941C1441.36 294.111 1441.06 285.552 1439.63 280.861C1439.28 279.684 1438.45 278.553 1437.32 277.522C1436.19 276.491 1434.77 275.566 1433.25 274.801C1430.19 273.27 1426.72 272.391 1424.31 272.592C1421.9 272.793 1419.26 274.125 1416.81 276.047C1414.35 277.967 1412.08 280.469 1410.39 282.996Z" fill="black"/>
<path d="M1430.71 283.589C1433.44 285.112 1435.26 288.062 1435.32 291.339C1435.42 294.624 1433.5 297.835 1430.8 299.234C1430.5 299.396 1430.2 299.535 1429.89 299.666C1429.56 299.778 1429.22 299.869 1428.89 299.871C1428.55 299.873 1428.25 299.784 1428.02 299.598C1427.78 299.412 1427.63 299.14 1427.55 298.817C1427.48 298.495 1427.49 298.145 1427.52 297.799C1427.54 297.505 1427.55 297.228 1427.55 296.956C1427.61 294.482 1427.29 292.972 1427.28 291.486C1427.25 290.006 1427.46 288.259 1427.47 285.886C1427.47 285.629 1427.46 285.357 1427.46 285.091C1427.41 284.746 1427.39 284.397 1427.45 284.071C1427.51 283.746 1427.66 283.468 1427.89 283.274C1428.12 283.079 1428.41 282.979 1428.75 282.968C1429.08 282.958 1429.42 283.036 1429.75 283.136C1430.08 283.262 1430.4 283.423 1430.71 283.589Z" fill="#FFF4F7"/>
<path d="M1330.6 226.643C1322.7 223.27 1312.76 231.019 1307.14 238.03C1300.26 246.642 1300.29 259.805 1309.14 265.508C1318.65 270.68 1332.28 260.267 1335.68 254.992C1338.98 249.871 1340.15 241.406 1339.68 238.012C1339.2 234.618 1338.5 230.017 1330.6 226.643Z" fill="#39132B"/>
<path d="M1337.99 232.278C1336.76 230.265 1334.6 228.261 1330.63 226.57C1326.65 224.869 1322.16 225.976 1317.98 228.373C1313.79 230.771 1309.89 234.469 1307.08 237.98C1303.63 242.301 1301.91 247.764 1302.16 252.864C1302.42 257.965 1304.65 262.708 1309.1 265.576L1309.1 265.577L1309.1 265.578C1313.89 268.184 1319.71 266.859 1324.74 264.239C1329.77 261.618 1334.04 257.688 1335.75 255.036C1337.4 252.464 1338.52 249.056 1339.17 245.87C1339.82 242.686 1339.99 239.711 1339.76 238.001C1339.52 236.304 1339.23 234.29 1337.99 232.278ZM1335.61 254.949C1333.92 257.572 1329.68 261.485 1324.67 264.097C1319.65 266.708 1313.9 268.004 1309.18 265.437C1304.78 262.602 1302.57 257.914 1302.32 252.856C1302.07 247.875 1303.72 242.541 1307.05 238.283L1307.21 238.081C1310.01 234.581 1313.89 230.898 1318.06 228.512C1322.22 226.126 1326.65 225.045 1330.57 226.718C1334.51 228.399 1336.65 230.383 1337.86 232.362C1339.07 234.342 1339.36 236.326 1339.6 238.023C1339.83 239.707 1339.66 242.662 1339.01 245.838C1338.37 249.014 1337.25 252.4 1335.61 254.949Z" fill="black"/>
<path d="M1330.27 234.924C1333 236.447 1334.82 239.398 1334.88 242.675C1334.98 245.959 1333.06 249.17 1330.36 250.57C1330.06 250.732 1329.76 250.871 1329.44 251.001C1329.12 251.114 1328.78 251.204 1328.45 251.206C1328.11 251.208 1327.81 251.119 1327.58 250.933C1327.34 250.748 1327.19 250.476 1327.11 250.153C1327.04 249.83 1327.05 249.48 1327.08 249.134C1327.1 248.84 1327.11 248.563 1327.11 248.292C1327.17 245.818 1326.85 244.307 1326.84 242.821C1326.81 241.341 1327.02 239.594 1327.03 237.222C1327.03 236.964 1327.02 236.692 1327.02 236.426C1326.97 236.081 1326.95 235.732 1327.01 235.406C1327.07 235.081 1327.22 234.804 1327.45 234.609C1327.68 234.415 1327.97 234.315 1328.31 234.304C1328.64 234.293 1328.98 234.371 1329.31 234.471C1329.64 234.598 1329.96 234.759 1330.27 234.924Z" fill="#FFF4F7"/>
<path d="M888.777 144.674C890.396 147.422 891.783 150.179 893.002 153.246C896.922 162.766 898.022 175.146 893.591 185.415C889.279 195.727 881.501 202.205 874.081 207.743C872.409 208.994 870.726 210.22 869.045 211.493C869.681 209.482 870.417 207.494 871.179 205.539C879.358 187.499 881.44 174.369 875.171 160.312C874.962 159.787 874.75 159.266 874.533 158.747C862.108 159.054 850.628 158.889 839.51 165.046C837.819 166.056 836.173 167.265 834.617 168.698C835.062 166.631 835.799 164.572 836.808 162.601C845.204 146.946 864.871 141.638 879.605 139.773L885.365 138.963L888.777 144.674Z" fill="#803256"/>
<path d="M680.349 149.435C691.845 148.605 705.419 149.105 716.275 155.914C718.165 157.084 719.853 158.377 721.462 159.764C723.102 161.248 724.866 162.706 725.922 164.692C724.054 163.704 721.91 163.447 719.869 163.042C717.912 162.703 715.942 162.432 714.086 162.313C705.593 161.735 697.711 163.548 689.479 165.551C688.842 169.086 688.181 172.564 687.553 175.948C683.921 193.748 683.18 206.174 696.407 222.064C697.678 223.762 698.98 225.454 700.347 227.185C698.249 226.503 696.216 225.782 694.192 224.958C685.299 221.35 675.604 215.332 670.77 204.267C666.054 193.3 666.986 182.095 668.694 172.455C669.746 166.797 671.264 161.352 673.055 156.065L673.921 150.965L680.349 149.435Z" fill="#803256"/>
<path d="M807.263 229.442C808.273 229.077 809.433 229.15 810.458 229.631C811.483 230.113 812.28 230.959 812.644 231.969C813.01 232.98 812.912 234.073 812.403 235.021C811.895 235.983 811.346 236.921 810.758 237.833C805.776 245.636 797.041 252.328 787.054 251.606C777.604 251.224 766.657 244.871 766.005 234.58C765.92 233.54 765.938 232.498 766.048 231.473C766.075 231.231 766.201 231.005 766.392 230.843C766.583 230.682 766.822 230.599 767.065 230.613C767.307 230.627 767.536 230.737 767.707 230.919C767.878 231.101 767.978 231.34 767.977 231.583C767.976 232.498 768.059 233.404 768.227 234.288C769.786 242.896 779.05 246.95 787.194 246.501C794.523 246.27 800.718 240.555 804.014 233.923C804.399 233.156 804.751 232.372 805.068 231.576C805.472 230.579 806.251 229.806 807.263 229.442Z" fill="#803256"/>
<path d="M781.005 130.792C784.39 134.154 786.909 139.15 787.639 144.303C791.213 142.749 794.601 139.864 798.031 136.458L802.724 130.875L805.135 138.138C805.399 139.317 805.727 140.453 806.061 141.988C806.42 143.506 806.528 145.657 806.194 147.281C805.833 149.082 805.325 150.588 804.761 151.989C811.013 153.805 815.628 157.444 820.209 161.188C821.86 162.677 823.549 164.224 824.643 166.156C823.07 164.639 821.113 163.659 819.203 162.674C813.088 159.741 805.895 156.994 800.409 157.366L795.621 157.048L797.399 153.141C797.862 151.387 798.345 149.569 798.604 147.996C794.502 151.624 789.368 154.645 783.169 154.956L777.253 155.349L778.175 149.502C778.189 149.416 778.202 149.33 778.214 149.244C778.452 147.654 778.452 146.118 778.219 144.626C777.608 145.588 776.911 146.521 776.109 147.409C772.625 151.427 767.232 152.796 763.679 153.658C757.422 155.169 752.511 154.446 747.924 157.224C746.152 158.271 744.586 159.773 743.333 161.587C744.019 159.498 745.166 157.485 746.801 155.822C750.883 151.477 757.666 150.495 761.68 148.559C770.099 145.495 772.462 140.725 773.392 132.973L774.602 123.942L781.005 130.792Z" fill="#803256"/>
<path d="M924.477 167.966C917.282 162.134 904.654 162.75 898.192 167.154C891.247 171.238 886.717 176.53 882.683 181.869C874.844 192.726 869.283 204.014 865.363 216.649C862.594 226.65 860.863 237.138 861.093 247.479C861.203 253.407 861.893 259.253 862.998 264.975C863.167 259.148 863.705 253.383 864.726 247.765C866.48 237.951 869.802 228.693 873.906 219.726C878.971 209.474 885.942 199.168 893.583 190.865C897.413 186.762 901.691 183.088 905.649 181.32C909.856 179.6 911.508 180.005 914.16 182.041C919.437 185.298 915.611 203.585 910.451 217.717C910.089 218.537 909.727 219.356 909.366 220.173C888.805 266.559 866.64 316.149 815.613 332.179C810.165 333.994 804.608 335.438 798.842 336.57C804.716 336.711 810.536 336.466 816.413 335.735C872.753 330.323 907.243 274.326 926.908 227.929C927.308 227.024 927.706 226.117 928.103 225.209L928.405 224.431C931.058 216.503 933.691 208.151 934.816 198.798C935.729 190.077 936.089 176.46 924.477 167.966Z" fill="#39132B"/>
<path d="M698.722 251.913C697.577 253.025 696.696 254.331 695.859 255.655C692.549 261.271 689.643 267.901 688.659 273.704C690.822 272.698 693.207 271.9 695.974 271.482C698.223 271.2 700.939 271.282 703.586 272.559C706.241 273.81 708.162 276.189 709.148 278.354L710.826 281.328L707.997 283.873C700.821 289.814 692.652 297.751 692.31 308.014C692.335 309.52 692.61 311.069 693.151 312.587C692.069 311.394 691.173 309.967 690.552 308.384C687.333 298.425 692.007 288.503 698.597 280.809C698.193 280.78 697.713 280.791 697.159 280.863C694.124 281.257 690.246 283.046 686.578 285.016L680.686 288.239L680 282.025C679.602 269.099 686.964 260.998 694.532 254.445C695.839 253.443 697.223 252.5 698.722 251.913Z" fill="#803256"/>
<path d="M792.225 193.221C796.161 193.387 800.658 194.22 804.408 196.786C808.731 199.744 811.244 204.498 810.977 210.009C810.785 213.957 809.333 217.555 806.648 220.353C804.139 222.968 801.129 224.288 798.707 224.993C794.139 226.324 789.132 226.123 786.95 226.07C782.393 225.958 777.606 225.371 773.619 224.123C771.668 223.512 769.346 222.572 767.293 221.037C765.268 219.522 762.4 216.544 762.077 211.877C761.608 205.087 766.728 201.174 768.611 199.892C771.17 198.15 774.21 196.9 776.821 196.022C781.847 194.33 788.249 193.054 792.225 193.221Z" fill="#803256"/>
<path d="M841.625 207.387C844.386 210.553 847.63 217.186 847.157 224.724C846.563 233.97 839.101 242.139 830.371 240.675C821.535 238.513 818.949 224.327 819.821 219.126C820.668 214.077 823.354 208.293 826.942 206.309C830.529 204.325 838.863 204.22 841.625 207.387Z" fill="#39132B"/>
<path d="M834.596 204.849C836.039 204.91 837.458 205.132 838.691 205.539C839.923 205.946 840.975 206.538 841.676 207.342C844.404 210.471 847.597 216.964 847.244 224.374L847.224 224.728L847.209 224.945C846.863 229.504 844.858 233.784 841.863 236.764C838.819 239.791 834.75 241.478 830.36 240.742L830.355 240.741C825.903 239.652 823.036 235.537 821.392 231.063C819.747 226.588 819.316 221.73 819.754 219.115C820.179 216.584 821.064 213.869 822.294 211.537C823.522 209.206 825.099 207.251 826.909 206.25C828.717 205.25 831.711 204.727 834.596 204.849ZM819.888 219.137C819.454 221.724 819.88 226.559 821.519 231.017C823.158 235.476 826.001 239.534 830.384 240.609C834.723 241.336 838.749 239.67 841.768 236.668C844.787 233.665 846.794 229.327 847.089 224.72L847.109 224.368C847.46 216.996 844.282 210.537 841.574 207.431C840.894 206.652 839.868 206.07 838.649 205.668C837.43 205.266 836.024 205.044 834.59 204.984C831.72 204.862 828.753 205.384 826.974 206.368C825.197 207.351 823.636 209.28 822.413 211.6C821.191 213.918 820.31 216.619 819.888 219.137Z" fill="black"/>
<path d="M835.667 212.597C838.289 212.823 840.7 214.459 841.873 216.952C843.084 219.434 842.713 222.559 841.128 224.56C840.956 224.787 840.772 224.998 840.575 225.206C840.361 225.406 840.133 225.592 839.88 225.708C839.626 225.823 839.365 225.858 839.121 225.797C838.876 225.736 838.663 225.581 838.494 225.359C838.325 225.138 838.212 224.866 838.119 224.589C838.032 224.358 837.942 224.143 837.853 223.932C837.044 222.016 836.283 220.966 835.763 219.83C835.225 218.708 834.789 217.295 833.979 215.472C833.892 215.274 833.792 215.069 833.694 214.867C833.54 214.619 833.402 214.359 833.339 214.087C833.275 213.816 833.291 213.553 833.399 213.326C833.507 213.098 833.701 212.919 833.951 212.796C834.201 212.674 834.49 212.616 834.78 212.579C835.074 212.563 835.379 212.574 835.667 212.597Z" fill="#FFF4F7"/>
<path d="M739.304 203.404C732.084 203.539 727.133 212.902 725.239 220.213C722.928 229.186 727.48 239.27 736.233 240.593C745.304 241.285 752.172 228.606 752.96 223.392C753.725 218.33 751.708 211.436 750.177 208.996C748.646 206.556 746.525 203.27 739.304 203.404Z" fill="#39132B"/>
<path d="M746.913 205.179C745.274 204.06 742.924 203.269 739.303 203.337C735.662 203.405 732.602 205.799 730.219 209.078C727.836 212.358 726.122 216.535 725.173 220.196C724.014 224.698 724.576 229.479 726.527 233.302C728.479 237.126 731.821 239.994 736.223 240.66L736.226 240.66L736.228 240.66C740.798 241.009 744.802 237.99 747.756 234.249C750.711 230.507 752.631 226.023 753.027 223.402C753.411 220.859 753.097 217.861 752.496 215.195C751.895 212.531 751.006 210.189 750.235 208.96C749.469 207.74 748.55 206.297 746.913 205.179ZM752.893 223.382C752.502 225.975 750.594 230.437 747.65 234.165C744.705 237.894 740.74 240.868 736.239 240.525C731.89 239.866 728.582 237.032 726.647 233.241C724.742 229.507 724.171 224.849 725.251 220.44L725.304 220.23C726.25 216.58 727.958 212.42 730.329 209.157C732.7 205.893 735.726 203.539 739.306 203.472C742.905 203.405 745.226 204.19 746.836 205.29C748.448 206.391 749.355 207.812 750.12 209.032C750.88 210.242 751.765 212.567 752.364 215.225C752.963 217.882 753.274 220.862 752.893 223.382Z" fill="black"/>
<path d="M741.898 209.869C744.519 210.095 746.93 211.731 748.103 214.224C749.314 216.706 748.943 219.831 747.359 221.832C747.186 222.059 747.002 222.27 746.805 222.478C746.591 222.678 746.363 222.864 746.11 222.98C745.856 223.095 745.595 223.13 745.351 223.069C745.107 223.008 744.893 222.853 744.724 222.631C744.556 222.41 744.442 222.138 744.349 221.861C744.262 221.63 744.172 221.415 744.084 221.204C743.274 219.288 742.513 218.238 741.994 217.102C741.456 215.98 741.019 214.567 740.209 212.744C740.122 212.546 740.022 212.341 739.925 212.139C739.77 211.891 739.633 211.631 739.569 211.359C739.505 211.088 739.522 210.825 739.629 210.598C739.737 210.37 739.931 210.191 740.181 210.068C740.432 209.946 740.72 209.888 741.01 209.851C741.305 209.835 741.609 209.846 741.898 209.869Z" fill="#FFF4F7"/>
<path d="M90.1689 446.145C103.836 420.453 142.669 392.646 176.169 444.145L90.1689 446.145Z" fill="#803256"/>
<path d="M1525.17 6.18304C1511.62 31.9355 1472.91 59.9138 1439.18 8.56324L1525.17 6.18304Z" fill="#803256"/>
</svg>
