<svg width="24" height="24" viewBox="0 0 24 24" fill="none" xmlns="http://www.w3.org/2000/svg">
<path d="M3.38988 21.8846C3.69306 21.8802 3.99631 21.879 4.29965 21.8778C5.00014 21.875 5.72446 21.8721 6.43562 21.8298C7.0242 21.7838 7.60989 21.7063 8.19017 21.5979C8.33999 21.5725 8.48967 21.5473 8.63957 21.5231C8.72905 21.5086 8.79541 21.4442 8.87943 21.3625C8.91956 21.3234 8.9653 21.279 9.01963 21.2346C9.03167 21.2246 9.04063 21.2116 9.04551 21.1968C9.05038 21.182 9.05097 21.1662 9.04717 21.1511C9.04338 21.136 9.03535 21.1224 9.02406 21.1116C9.01276 21.1009 8.99864 21.0936 8.98335 21.0906C8.90871 21.0757 8.84782 21.0618 8.79558 21.0499C8.71719 21.0293 8.63718 21.0153 8.55642 21.0082C7.95519 20.9759 7.35399 20.9443 6.75277 20.9134C5.90304 20.8691 5.05334 20.8238 4.20367 20.7774C4.17393 20.7761 4.14417 20.7762 4.11444 20.7779C4.00378 20.782 3.92641 20.7847 3.87265 20.671C4.04416 20.5072 4.2164 20.3419 4.38936 20.1752C4.79975 19.7807 5.22395 19.3728 5.64975 18.9755C7.26491 17.4679 8.82035 15.8949 10.2725 14.2999C10.4484 14.118 10.5975 13.9123 10.7154 13.6888C10.7465 13.6328 10.7649 13.5708 10.7693 13.507C10.7738 13.4432 10.7642 13.3792 10.7413 13.3195C10.7083 13.2538 10.6615 13.196 10.604 13.1501C10.5465 13.1041 10.4796 13.0711 10.4081 13.0534C10.394 13.0487 10.3788 13.048 10.3643 13.0515C9.9192 13.1524 9.6056 13.4612 9.30234 13.7598C9.25267 13.8088 9.20307 13.8575 9.15307 13.9052C8.71764 14.3211 8.27203 14.7406 7.8411 15.1467C6.37047 16.5324 4.84975 17.9653 3.45856 19.4825C3.44404 19.4985 3.43 19.5157 3.41564 19.5337C3.35778 19.6057 3.31974 19.6537 3.22866 19.6342C3.22128 19.4535 3.2171 19.2686 3.21309 19.0892C3.21151 18.6177 3.18249 18.1467 3.12618 17.6786C3.10668 17.5397 3.09136 17.3957 3.07651 17.2565C3.01777 16.706 2.95702 16.1368 2.62985 15.6329C2.6186 15.6156 2.60124 15.6032 2.5812 15.598C2.56117 15.5929 2.53992 15.5954 2.52167 15.6051C2.48732 15.6234 2.45562 15.6371 2.4289 15.6486C2.3647 15.6764 2.30901 15.7004 2.29432 15.7612C1.97445 17.0858 1.99108 18.4484 2.00705 19.7666C2.00937 19.9581 2.01178 20.1497 2.01306 20.3411C2.01595 20.746 2.03649 21.1382 2.2538 21.4858C2.25727 21.4916 2.2615 21.497 2.2664 21.5018C2.6146 21.8377 3.03999 21.8856 3.34509 21.8856C3.36002 21.8849 3.37495 21.8848 3.38988 21.8846Z" fill="#605158"/>
<path d="M19.5148 3.91685C18.4249 4.96678 17.3341 6.01589 16.2427 7.06417C15.4173 7.85753 14.592 8.65104 13.7669 9.44473L13.7589 9.45225C13.5077 9.69417 13.2478 9.94426 13.0143 10.212C12.9537 10.297 12.9155 10.3956 12.9032 10.4991C12.891 10.555 12.8784 10.6125 12.8596 10.675C12.856 10.6868 12.8552 10.6992 12.8571 10.7113C12.859 10.7235 12.8636 10.735 12.8706 10.7451C12.8776 10.7552 12.8868 10.7636 12.8975 10.7698C12.9081 10.7759 12.92 10.7796 12.9324 10.7805C12.9966 10.7854 13.0593 10.7959 13.1196 10.8062C13.1856 10.8196 13.2527 10.8276 13.3202 10.8302C13.3724 10.8319 13.4242 10.8201 13.4705 10.7958C13.6576 10.6811 13.8295 10.5435 13.9825 10.3864L14.0553 10.3177C15.2977 9.15661 16.5394 7.99493 17.7807 6.83271C18.6803 5.99088 19.5799 5.14916 20.4796 4.30754C20.4933 4.29474 20.5068 4.28099 20.5204 4.26755C20.5892 4.19749 20.6342 4.15182 20.7328 4.17957C20.7356 4.35152 20.7376 4.52515 20.7395 4.6999C20.7442 5.14193 20.7491 5.59915 20.771 6.05237C20.7754 6.14179 20.779 6.23128 20.7829 6.32085C20.8075 6.90772 20.8331 7.51466 21.0177 8.11368C21.0229 8.13126 21.0339 8.14658 21.049 8.1571C21.0641 8.16763 21.0823 8.17277 21.1007 8.17167C21.4563 8.15376 21.517 7.9403 21.5571 7.79906L21.5663 7.76755C21.9522 6.4681 22.0788 5.02283 21.9532 3.34933C21.8899 2.50526 21.5038 2.13922 20.6624 2.12522C19.7812 2.09859 18.8993 2.12076 18.0207 2.19161C17.4693 2.25763 16.9232 2.36184 16.3864 2.50351C16.2298 2.54102 16.0734 2.57845 15.9166 2.61404C15.8248 2.6474 15.7459 2.70866 15.691 2.78918C15.6589 2.82589 15.6256 2.86397 15.5879 2.89972C15.5785 2.90862 15.5713 2.9196 15.567 2.93176C15.5627 2.94392 15.5612 2.95693 15.5629 2.96974C15.5645 2.98254 15.5692 2.99477 15.5765 3.00545C15.5838 3.01613 15.5934 3.02495 15.6048 3.03121C15.956 3.22451 16.2778 3.24425 16.5891 3.26313C16.6396 3.26625 16.6898 3.26928 16.7399 3.2732C16.889 3.28455 17.0379 3.298 17.1869 3.31127C17.4171 3.33199 17.6552 3.35342 17.8906 3.36726C18.1418 3.38157 18.397 3.38645 18.6438 3.39125C18.7499 3.39325 18.8561 3.39525 18.9621 3.39805C19.0938 3.39884 19.2253 3.39278 19.3563 3.37989C19.576 3.35411 19.7981 3.35381 20.0179 3.37901C19.9736 3.42747 19.9317 3.47395 19.8913 3.51858C19.7561 3.66766 19.6391 3.79705 19.5148 3.91685Z" fill="#605158"/>
</svg>
